*
*
G04 PADS VX.2.11 Build Number: 20124196 generated Gerber (RS-274-X) file*
G04 PC Version=2.1*
*
%IN "SummerCamp_NightLight.p"*%
*
%MOIN*%
*
%FSLAX35Y35*%
*
*
*
*
G04 PC Standard Apertures*
*
*
G04 Thermal Relief Aperture macro.*
%AMTER*
1,1,$1,0,0*
1,0,$1-$2,0,0*
21,0,$3,$4,0,0,45*
21,0,$3,$4,0,0,135*
%
*
*
G04 Annular Aperture macro.*
%AMANN*
1,1,$1,0,0*
1,0,$2,0,0*
%
*
*
G04 Odd Aperture macro.*
%AMODD*
1,1,$1,0,0*
1,0,$1-0.005,0,0*
%
*
*
G04 PC Custom Aperture Macros*
*
*
*
*
*
*
G04 PC Aperture Table*
*
%ADD010C,0.001*%
%ADD011C,0.07*%
%ADD012C,0.06*%
%ADD013R,0.06X0.05*%
%ADD014C,0.09055*%
%ADD015C,0.012*%
%ADD016C,0.01*%
*
*
*
*
G04 PC Circuitry*
G04 Layer Name SummerCamp_NightLight.p - circuitry*
%LPD*%
*
*
G04 PC Custom Flashes*
G04 Layer Name SummerCamp_NightLight.p - flashes*
%LPD*%
*
*
G04 PC Circuitry*
G04 Layer Name SummerCamp_NightLight.p - circuitry*
%LPD*%
*
G54D10*
G54D11*
G01X256500Y173500D03*
X246500D03*
X236500D03*
X226500D03*
X216500D03*
Y123500D03*
X226500D03*
X236500D03*
X246500D03*
X256500D03*
X327500Y120000D03*
X407500D03*
G54D12*
X145500Y106000D03*
Y116000D03*
Y126000D03*
Y136000D03*
Y146000D03*
Y156000D03*
Y166000D03*
Y176000D03*
X327500Y139000D03*
X367500D03*
G54D13*
X343000Y150000D03*
X352000D03*
G54D14*
X111750Y218500D03*
X562250D03*
X170000Y111500D03*
X562250D03*
G54D15*
X145500Y136000D02*
X161000D01*
X178000Y153000*
X222000*
X226500Y157500*
Y173500*
X145500Y126000D02*
X159500D01*
X183000Y149500*
X229000*
X236500Y157000*
Y173500*
X246500Y123500D02*
Y117000D01*
X249000Y114500*
X312000*
X320500Y123000*
Y145500*
X331500Y156500*
X349000*
X352000Y153500*
Y150000*
X226500Y123500D02*
Y117500D01*
X233500Y110500*
X318000*
X327500Y120000*
Y139000*
X352000Y150000D02*
X363000D01*
X367500Y145500*
Y139000*
X327500D02*
Y144000D01*
X333500Y150000*
X343000*
X139000Y179000D02*
X150000Y190000D01*
X246500*
X256500Y180000*
Y173500*
X139000Y179000D02*
Y168000D01*
X141000Y166000*
X145500*
Y176000D02*
X156000Y186500D01*
X243000*
X246500Y183000*
Y173500*
G54D16*
X100500Y241500D02*
X573500D01*
Y100500*
X100500*
Y241500*
X0Y0D02*
M02*
