M48
;FILE_FORMAT=2:4
INCH,LZ
FMAT,2
ICI,OFF
;TYPE=PLATED
T1C.035
T2C.037
T3C.04
T4C.041
%
M72
G90
G93X0Y0
T1C.035F197S55
X-00915Y-00455
X-00915Y-00355
X-00915Y-00255
X-00915Y-00155
X-00915Y-00055
X-00915Y00045
X-00915Y00145
X-00915Y00245
T2C.037F197S55
X00905Y-00125
X01305Y-00125
T3C.04F139S55
X-00205Y-0028
X-00205Y0022
X-00005Y0022
X-00105Y0022
X-00105Y-0028
X-00005Y-0028
X00095Y-0028
X00195Y-0028
X00195Y0022
X00095Y0022
T4C.041F139S55
X00905Y-00315
X01705Y-00315
M30
