*
*
G04 PADS VX.2.11 Build Number: 20124196 generated Gerber (RS-274-X) file*
G04 PC Version=2.1*
*
%IN "SummerCamp_NightLight.p"*%
*
%MOIN*%
*
%FSLAX35Y35*%
*
*
*
*
G04 PC Standard Apertures*
*
*
G04 Thermal Relief Aperture macro.*
%AMTER*
1,1,$1,0,0*
1,0,$1-$2,0,0*
21,0,$3,$4,0,0,45*
21,0,$3,$4,0,0,135*
%
*
*
G04 Annular Aperture macro.*
%AMANN*
1,1,$1,0,0*
1,0,$2,0,0*
%
*
*
G04 Odd Aperture macro.*
%AMODD*
1,1,$1,0,0*
1,0,$1-0.005,0,0*
%
*
*
G04 PC Custom Aperture Macros*
*
*
*
*
*
*
G04 PC Aperture Table*
*
%ADD010C,0.001*%
%ADD016C,0.01*%
%ADD025C,0.005*%
%ADD034C,0.00197*%
*
*
*
*
G04 PC Circuitry*
G04 Layer Name SummerCamp_NightLight.p - circuitry*
%LPD*%
*
*
G04 PC Custom Flashes*
G04 Layer Name SummerCamp_NightLight.p - flashes*
%LPD*%
*
*
G04 PC Circuitry*
G04 Layer Name SummerCamp_NightLight.p - circuitry*
%LPD*%
*
G54D10*
G54D16*
G01X161000Y208500D02*
X180685D01*
Y228185*
X161000*
Y208500*
X177496Y218500D02*
G75*
G03X177496I-6496J0D01*
G01X158244Y194878D02*
X515409D01*
Y242122*
X158244*
Y194878*
X183756D02*
Y242122D01*
X209268Y194878D02*
Y242122D01*
X234780Y194878D02*
Y242122D01*
X260291Y194878D02*
Y242122D01*
X285803Y194878D02*
Y242122D01*
X311315Y194878D02*
Y242122D01*
X336827Y194878D02*
Y242122D01*
X362339Y194878D02*
Y242122D01*
X387850Y194878D02*
Y242122D01*
X413362Y194878D02*
Y242122D01*
X438874Y194878D02*
Y242122D01*
X464386Y194878D02*
Y242122D01*
X489898Y194878D02*
Y242122D01*
X186512Y208500D02*
X206197D01*
Y228185*
X186512*
Y208500*
X203008Y218500D02*
G03X203008I-6496J0D01*
G01X212024Y208500D02*
X231709D01*
Y228185*
X212024*
Y208500*
X228520Y218500D02*
G03X228520I-6496J0D01*
G01X237535Y208500D02*
X257220D01*
Y228185*
X237535*
Y208500*
X254031Y218500D02*
G03X254031I-6496J0D01*
G01X263047Y208500D02*
X282732D01*
Y228185*
X263047*
Y208500*
X279543Y218500D02*
G03X279543I-6496J0D01*
G01X288559Y208500D02*
X308244D01*
Y228185*
X288559*
Y208500*
X305055Y218500D02*
G03X305055I-6496J0D01*
G01X314071Y208500D02*
X333756D01*
Y228185*
X314071*
Y208500*
X330567Y218500D02*
G03X330567I-6496J0D01*
G01X339583Y208500D02*
X359268D01*
Y228185*
X339583*
Y208500*
X356079Y218500D02*
G03X356079I-6496J0D01*
G01X365094Y208500D02*
X384780D01*
Y228185*
X365094*
Y208500*
X381591Y218500D02*
G03X381591I-6497J0D01*
G01X390606Y208500D02*
X410291D01*
Y228185*
X390606*
Y208500*
X407102Y218500D02*
G03X407102I-6496J0D01*
G01X416118Y208500D02*
X435803D01*
Y228185*
X416118*
Y208500*
X432614Y218500D02*
G03X432614I-6496J0D01*
G01X441630Y208500D02*
X461315D01*
Y228185*
X441630*
Y208500*
X458126Y218500D02*
G03X458126I-6496J0D01*
G01X467142Y208500D02*
X486827D01*
Y228185*
X467142*
Y208500*
X483638Y218500D02*
G03X483638I-6496J0D01*
G01X492654Y208500D02*
X512339D01*
Y228185*
X492654*
Y208500*
X509150Y218500D02*
G03X509150I-6496J0D01*
G01X166315Y199327D02*
X174425D01*
X173008Y197909*
X166669Y199327D02*
X174465D01*
X172969Y200823*
X191827Y199327D02*
X199937D01*
X198520Y197909*
X192181Y199327D02*
X199976D01*
X198480Y200823*
X217339Y199327D02*
X225449D01*
X224031Y197909*
X217693Y199327D02*
X225488D01*
X223992Y200823*
X242850Y199327D02*
X250961D01*
X249543Y197909*
X243205Y199327D02*
X251000D01*
X249504Y200823*
X268362Y199327D02*
X276472D01*
X275055Y197909*
X268717Y199327D02*
X276512D01*
X275016Y200823*
X293874Y199327D02*
X301984D01*
X300567Y197909*
X294228Y199327D02*
X302024D01*
X300528Y200823*
X319386Y199327D02*
X327496D01*
X326079Y197909*
X319740Y199327D02*
X327535D01*
X326039Y200823*
X344898Y199327D02*
X353008D01*
X351591Y197909*
X345252Y199327D02*
X353047D01*
X351551Y200823*
X370409Y199327D02*
X378520D01*
X377102Y197909*
X370764Y199327D02*
X378559D01*
X377063Y200823*
X395921Y199327D02*
X404031D01*
X402614Y197909*
X396276Y199327D02*
X404071D01*
X402575Y200823*
X421433Y199327D02*
X429543D01*
X428126Y197909*
X421787Y199327D02*
X429583D01*
X428087Y200823*
X446945Y199327D02*
X455055D01*
X453638Y197909*
X447299Y199327D02*
X455094D01*
X453598Y200823*
X472457Y199327D02*
X480567D01*
X479150Y197909*
X472811Y199327D02*
X480606D01*
X479110Y200823*
X497969Y199327D02*
X506079D01*
X504661Y197909*
X498323Y199327D02*
X506118D01*
X504622Y200823*
X100500Y241500D02*
X573500D01*
Y100500*
X100500*
Y241500*
G54D25*
X182153Y200252D02*
X182040Y199939D01*
X181812Y199627*
X181585Y199471*
X181131*
X180903Y199627*
X180676Y199939*
X180562Y200252*
X180449Y200721*
Y201502*
X180562Y201971*
X180676Y202283*
X180903Y202596*
X181131Y202752*
X181585*
X181812Y202596*
X182040Y202283*
X182153Y201971*
Y201502*
X181585D02*
X182153D01*
X161287Y200252D02*
X161174Y199939D01*
X160946Y199627*
X160719Y199471*
X160264*
X160037Y199627*
X159810Y199939*
X159696Y200252*
X159583Y200721*
Y201502*
X159696Y201971*
X159810Y202283*
X160037Y202596*
X160264Y202752*
X160719*
X160946Y202596*
X161174Y202283*
X161287Y201971*
Y201502*
X160719D02*
X161287D01*
X207665Y200252D02*
X207552Y199939D01*
X207324Y199627*
X207097Y199471*
X206642*
X206415Y199627*
X206188Y199939*
X206074Y200252*
X205961Y200721*
Y201502*
X206074Y201971*
X206188Y202283*
X206415Y202596*
X206642Y202752*
X207097*
X207324Y202596*
X207552Y202283*
X207665Y201971*
Y201502*
X207097D02*
X207665D01*
X186799Y200252D02*
X186685Y199939D01*
X186458Y199627*
X186231Y199471*
X185776*
X185549Y199627*
X185322Y199939*
X185208Y200252*
X185094Y200721*
Y201502*
X185208Y201971*
X185322Y202283*
X185549Y202596*
X185776Y202752*
X186231*
X186458Y202596*
X186685Y202283*
X186799Y201971*
Y201502*
X186231D02*
X186799D01*
X233177Y200252D02*
X233063Y199939D01*
X232836Y199627*
X232609Y199471*
X232154*
X231927Y199627*
X231700Y199939*
X231586Y200252*
X231472Y200721*
Y201502*
X231586Y201971*
X231700Y202283*
X231927Y202596*
X232154Y202752*
X232609*
X232836Y202596*
X233063Y202283*
X233177Y201971*
Y201502*
X232609D02*
X233177D01*
X212311Y200252D02*
X212197Y199939D01*
X211970Y199627*
X211743Y199471*
X211288*
X211061Y199627*
X210834Y199939*
X210720Y200252*
X210606Y200721*
Y201502*
X210720Y201971*
X210834Y202283*
X211061Y202596*
X211288Y202752*
X211743*
X211970Y202596*
X212197Y202283*
X212311Y201971*
Y201502*
X211743D02*
X212311D01*
X258689Y200252D02*
X258575Y199939D01*
X258348Y199627*
X258121Y199471*
X257666*
X257439Y199627*
X257212Y199939*
X257098Y200252*
X256984Y200721*
Y201502*
X257098Y201971*
X257212Y202283*
X257439Y202596*
X257666Y202752*
X258121*
X258348Y202596*
X258575Y202283*
X258689Y201971*
Y201502*
X258121D02*
X258689D01*
X237823Y200252D02*
X237709Y199939D01*
X237482Y199627*
X237254Y199471*
X236800*
X236573Y199627*
X236345Y199939*
X236232Y200252*
X236118Y200721*
Y201502*
X236232Y201971*
X236345Y202283*
X236573Y202596*
X236800Y202752*
X237254*
X237482Y202596*
X237709Y202283*
X237823Y201971*
Y201502*
X237254D02*
X237823D01*
X284201Y200252D02*
X284087Y199939D01*
X283860Y199627*
X283632Y199471*
X283178*
X282951Y199627*
X282723Y199939*
X282610Y200252*
X282496Y200721*
Y201502*
X282610Y201971*
X282723Y202283*
X282951Y202596*
X283178Y202752*
X283632*
X283860Y202596*
X284087Y202283*
X284201Y201971*
Y201502*
X283632D02*
X284201D01*
X263334Y200252D02*
X263221Y199939D01*
X262994Y199627*
X262766Y199471*
X262312*
X262084Y199627*
X261857Y199939*
X261744Y200252*
X261630Y200721*
Y201502*
X261744Y201971*
X261857Y202283*
X262084Y202596*
X262312Y202752*
X262766*
X262994Y202596*
X263221Y202283*
X263334Y201971*
Y201502*
X262766D02*
X263334D01*
X309712Y200252D02*
X309599Y199939D01*
X309372Y199627*
X309144Y199471*
X308690*
X308462Y199627*
X308235Y199939*
X308122Y200252*
X308008Y200721*
Y201502*
X308122Y201971*
X308235Y202283*
X308462Y202596*
X308690Y202752*
X309144*
X309372Y202596*
X309599Y202283*
X309712Y201971*
Y201502*
X309144D02*
X309712D01*
X288846Y200252D02*
X288733Y199939D01*
X288505Y199627*
X288278Y199471*
X287824*
X287596Y199627*
X287369Y199939*
X287255Y200252*
X287142Y200721*
Y201502*
X287255Y201971*
X287369Y202283*
X287596Y202596*
X287824Y202752*
X288278*
X288505Y202596*
X288733Y202283*
X288846Y201971*
Y201502*
X288278D02*
X288846D01*
X335224Y200252D02*
X335111Y199939D01*
X334883Y199627*
X334656Y199471*
X334202*
X333974Y199627*
X333747Y199939*
X333633Y200252*
X333520Y200721*
Y201502*
X333633Y201971*
X333747Y202283*
X333974Y202596*
X334202Y202752*
X334656*
X334883Y202596*
X335111Y202283*
X335224Y201971*
Y201502*
X334656D02*
X335224D01*
X314358Y200252D02*
X314244Y199939D01*
X314017Y199627*
X313790Y199471*
X313335*
X313108Y199627*
X312881Y199939*
X312767Y200252*
X312654Y200721*
Y201502*
X312767Y201971*
X312881Y202283*
X313108Y202596*
X313335Y202752*
X313790*
X314017Y202596*
X314244Y202283*
X314358Y201971*
Y201502*
X313790D02*
X314358D01*
X360736Y200252D02*
X360622Y199939D01*
X360395Y199627*
X360168Y199471*
X359713*
X359486Y199627*
X359259Y199939*
X359145Y200252*
X359031Y200721*
Y201502*
X359145Y201971*
X359259Y202283*
X359486Y202596*
X359713Y202752*
X360168*
X360395Y202596*
X360622Y202283*
X360736Y201971*
Y201502*
X360168D02*
X360736D01*
X339870Y200252D02*
X339756Y199939D01*
X339529Y199627*
X339302Y199471*
X338847*
X338620Y199627*
X338393Y199939*
X338279Y200252*
X338165Y200721*
Y201502*
X338279Y201971*
X338393Y202283*
X338620Y202596*
X338847Y202752*
X339302*
X339529Y202596*
X339756Y202283*
X339870Y201971*
Y201502*
X339302D02*
X339870D01*
X386248Y200252D02*
X386134Y199939D01*
X385907Y199627*
X385680Y199471*
X385225*
X384998Y199627*
X384771Y199939*
X384657Y200252*
X384543Y200721*
Y201502*
X384657Y201971*
X384771Y202283*
X384998Y202596*
X385225Y202752*
X385680*
X385907Y202596*
X386134Y202283*
X386248Y201971*
Y201502*
X385680D02*
X386248D01*
X365382Y200252D02*
X365268Y199939D01*
X365041Y199627*
X364814Y199471*
X364359*
X364132Y199627*
X363904Y199939*
X363791Y200252*
X363677Y200721*
Y201502*
X363791Y201971*
X363904Y202283*
X364132Y202596*
X364359Y202752*
X364814*
X365041Y202596*
X365268Y202283*
X365382Y201971*
Y201502*
X364814D02*
X365382D01*
X411760Y200252D02*
X411646Y199939D01*
X411419Y199627*
X411191Y199471*
X410737*
X410510Y199627*
X410282Y199939*
X410169Y200252*
X410055Y200721*
Y201502*
X410169Y201971*
X410282Y202283*
X410510Y202596*
X410737Y202752*
X411191*
X411419Y202596*
X411646Y202283*
X411760Y201971*
Y201502*
X411191D02*
X411760D01*
X390894Y200252D02*
X390780Y199939D01*
X390553Y199627*
X390325Y199471*
X389871*
X389644Y199627*
X389416Y199939*
X389303Y200252*
X389189Y200721*
Y201502*
X389303Y201971*
X389416Y202283*
X389644Y202596*
X389871Y202752*
X390325*
X390553Y202596*
X390780Y202283*
X390894Y201971*
Y201502*
X390325D02*
X390894D01*
X437271Y200252D02*
X437158Y199939D01*
X436931Y199627*
X436703Y199471*
X436249*
X436021Y199627*
X435794Y199939*
X435681Y200252*
X435567Y200721*
Y201502*
X435681Y201971*
X435794Y202283*
X436021Y202596*
X436249Y202752*
X436703*
X436931Y202596*
X437158Y202283*
X437271Y201971*
Y201502*
X436703D02*
X437271D01*
X416405Y200252D02*
X416292Y199939D01*
X416064Y199627*
X415837Y199471*
X415383*
X415155Y199627*
X414928Y199939*
X414814Y200252*
X414701Y200721*
Y201502*
X414814Y201971*
X414928Y202283*
X415155Y202596*
X415383Y202752*
X415837*
X416064Y202596*
X416292Y202283*
X416405Y201971*
Y201502*
X415837D02*
X416405D01*
X462783Y200252D02*
X462670Y199939D01*
X462442Y199627*
X462215Y199471*
X461761*
X461533Y199627*
X461306Y199939*
X461192Y200252*
X461079Y200721*
Y201502*
X461192Y201971*
X461306Y202283*
X461533Y202596*
X461761Y202752*
X462215*
X462442Y202596*
X462670Y202283*
X462783Y201971*
Y201502*
X462215D02*
X462783D01*
X441917Y200252D02*
X441804Y199939D01*
X441576Y199627*
X441349Y199471*
X440894*
X440667Y199627*
X440440Y199939*
X440326Y200252*
X440213Y200721*
Y201502*
X440326Y201971*
X440440Y202283*
X440667Y202596*
X440894Y202752*
X441349*
X441576Y202596*
X441804Y202283*
X441917Y201971*
Y201502*
X441349D02*
X441917D01*
X488295Y200252D02*
X488181Y199939D01*
X487954Y199627*
X487727Y199471*
X487272*
X487045Y199627*
X486818Y199939*
X486704Y200252*
X486591Y200721*
Y201502*
X486704Y201971*
X486818Y202283*
X487045Y202596*
X487272Y202752*
X487727*
X487954Y202596*
X488181Y202283*
X488295Y201971*
Y201502*
X487727D02*
X488295D01*
X467429Y200252D02*
X467315Y199939D01*
X467088Y199627*
X466861Y199471*
X466406*
X466179Y199627*
X465952Y199939*
X465838Y200252*
X465724Y200721*
Y201502*
X465838Y201971*
X465952Y202283*
X466179Y202596*
X466406Y202752*
X466861*
X467088Y202596*
X467315Y202283*
X467429Y201971*
Y201502*
X466861D02*
X467429D01*
X513807Y200252D02*
X513693Y199939D01*
X513466Y199627*
X513239Y199471*
X512784*
X512557Y199627*
X512330Y199939*
X512216Y200252*
X512102Y200721*
Y201502*
X512216Y201971*
X512330Y202283*
X512557Y202596*
X512784Y202752*
X513239*
X513466Y202596*
X513693Y202283*
X513807Y201971*
Y201502*
X513239D02*
X513807D01*
X492941Y200252D02*
X492827Y199939D01*
X492600Y199627*
X492373Y199471*
X491918*
X491691Y199627*
X491463Y199939*
X491350Y200252*
X491236Y200721*
Y201502*
X491350Y201971*
X491463Y202283*
X491691Y202596*
X491918Y202752*
X492373*
X492600Y202596*
X492827Y202283*
X492941Y201971*
Y201502*
X492373D02*
X492941D01*
X160605Y231436D02*
Y234248D01*
X159583Y232842D02*
X161628D01*
X181472Y231436D02*
Y234248D01*
X180449Y232842D02*
X182494D01*
X206983Y231436D02*
Y234248D01*
X205961Y232842D02*
X208006D01*
X186117Y231436D02*
Y234248D01*
X185094Y232842D02*
X187140D01*
X232495Y231436D02*
Y234248D01*
X231472Y232842D02*
X233518D01*
X211629Y231436D02*
Y234248D01*
X210606Y232842D02*
X212652D01*
X258007Y231436D02*
Y234248D01*
X256984Y232842D02*
X259030D01*
X237141Y231436D02*
Y234248D01*
X236118Y232842D02*
X238164D01*
X283519Y231436D02*
Y234248D01*
X282496Y232842D02*
X284542D01*
X262653Y231436D02*
Y234248D01*
X261630Y232842D02*
X263675D01*
X309031Y231436D02*
Y234248D01*
X308008Y232842D02*
X310053D01*
X288164Y231436D02*
Y234248D01*
X287142Y232842D02*
X289187D01*
X334542Y231436D02*
Y234248D01*
X333520Y232842D02*
X335565D01*
X313676Y231436D02*
Y234248D01*
X312654Y232842D02*
X314699D01*
X360054Y231436D02*
Y234248D01*
X359031Y232842D02*
X361077D01*
X339188Y231436D02*
Y234248D01*
X338165Y232842D02*
X340211D01*
X385566Y231436D02*
Y234248D01*
X384543Y232842D02*
X386589D01*
X364700Y231436D02*
Y234248D01*
X363677Y232842D02*
X365723D01*
X411078Y231436D02*
Y234248D01*
X410055Y232842D02*
X412101D01*
X390212Y231436D02*
Y234248D01*
X389189Y232842D02*
X391234D01*
X436590Y231436D02*
Y234248D01*
X435567Y232842D02*
X437612D01*
X415724Y231436D02*
Y234248D01*
X414701Y232842D02*
X416746D01*
X462101Y231436D02*
Y234248D01*
X461079Y232842D02*
X463124D01*
X441235Y231436D02*
Y234248D01*
X440213Y232842D02*
X442258D01*
X487613Y231436D02*
Y234248D01*
X486591Y232842D02*
X488636D01*
X466747Y231436D02*
Y234248D01*
X465724Y232842D02*
X467770D01*
X513125Y231436D02*
Y234248D01*
X512102Y232842D02*
X514148D01*
X492259Y231436D02*
Y234248D01*
X491236Y232842D02*
X493282D01*
X159583Y215219D02*
Y218500D01*
Y215219D02*
X160378D01*
X160719Y215375*
X160946Y215687*
X160946D02*
X161060Y216000D01*
X161174Y216469*
Y217250*
X161060Y217719*
X160946Y218031*
X160719Y218344*
X160378Y218500*
X159583*
X180449Y215219D02*
Y218500D01*
Y215219D02*
X181244D01*
X181585Y215375*
X181812Y215687*
X181812D02*
X181926Y216000D01*
X182040Y216469*
Y217250*
X181926Y217719*
X181812Y218031*
X181585Y218344*
X181244Y218500*
X180449*
X205961Y215219D02*
Y218500D01*
Y215219D02*
X206756D01*
X207097Y215375*
X207324Y215687*
X207324D02*
X207438Y216000D01*
X207552Y216469*
Y217250*
X207438Y217719*
X207324Y218031*
X207097Y218344*
X206756Y218500*
X205961*
X185094Y215219D02*
Y218500D01*
Y215219D02*
X185890D01*
X186231Y215375*
X186458Y215687*
X186458D02*
X186572Y216000D01*
X186685Y216469*
Y217250*
X186572Y217719*
X186458Y218031*
X186231Y218344*
X185890Y218500*
X185094*
X231472Y215219D02*
Y218500D01*
Y215219D02*
X232268D01*
X232609Y215375*
X232836Y215687*
X232836D02*
X232950Y216000D01*
X233063Y216469*
Y217250*
X232950Y217719*
X232836Y218031*
X232609Y218344*
X232268Y218500*
X231472*
X210606Y215219D02*
Y218500D01*
Y215219D02*
X211402D01*
X211743Y215375*
X211970Y215687*
X211970D02*
X212084Y216000D01*
X212197Y216469*
Y217250*
X212084Y217719*
X211970Y218031*
X211743Y218344*
X211402Y218500*
X210606*
X256984Y215219D02*
Y218500D01*
Y215219D02*
X257780D01*
X258121Y215375*
X258348Y215687*
X258348D02*
X258462Y216000D01*
X258575Y216469*
Y217250*
X258462Y217719*
X258348Y218031*
X258121Y218344*
X257780Y218500*
X256984*
X236118Y215219D02*
Y218500D01*
Y215219D02*
X236914D01*
X237254Y215375*
X237482Y215687*
X237482D02*
X237595Y216000D01*
X237709Y216469*
Y217250*
X237595Y217719*
X237482Y218031*
X237254Y218344*
X236914Y218500*
X236118*
X282496Y215219D02*
Y218500D01*
Y215219D02*
X283292D01*
X283632Y215375*
X283860Y215687*
X283860D02*
X283973Y216000D01*
X284087Y216469*
Y217250*
X283973Y217719*
X283860Y218031*
X283632Y218344*
X283292Y218500*
X282496*
X261630Y215219D02*
Y218500D01*
Y215219D02*
X262425D01*
X262766Y215375*
X262994Y215687*
X262994D02*
X263107Y216000D01*
X263221Y216469*
Y217250*
X263107Y217719*
X262994Y218031*
X262766Y218344*
X262425Y218500*
X261630*
X308008Y215219D02*
Y218500D01*
Y215219D02*
X308803D01*
X309144Y215375*
X309372Y215687*
X309372D02*
X309485Y216000D01*
X309599Y216469*
Y217250*
X309485Y217719*
X309372Y218031*
X309144Y218344*
X308803Y218500*
X308008*
X287142Y215219D02*
Y218500D01*
Y215219D02*
X287937D01*
X288278Y215375*
X288505Y215687*
X288505D02*
X288619Y216000D01*
X288733Y216469*
Y217250*
X288619Y217719*
X288505Y218031*
X288278Y218344*
X287937Y218500*
X287142*
X333520Y215219D02*
Y218500D01*
Y215219D02*
X334315D01*
X334656Y215375*
X334883Y215687*
X334883D02*
X334997Y216000D01*
X335111Y216469*
Y217250*
X334997Y217719*
X334883Y218031*
X334656Y218344*
X334315Y218500*
X333520*
X312654Y215219D02*
Y218500D01*
Y215219D02*
X313449D01*
X313790Y215375*
X314017Y215687*
X314017D02*
X314131Y216000D01*
X314244Y216469*
Y217250*
X314131Y217719*
X314017Y218031*
X313790Y218344*
X313449Y218500*
X312654*
X359031Y215219D02*
Y218500D01*
Y215219D02*
X359827D01*
X360168Y215375*
X360395Y215687*
X360395D02*
X360509Y216000D01*
X360622Y216469*
Y217250*
X360509Y217719*
X360395Y218031*
X360168Y218344*
X359827Y218500*
X359031*
X338165Y215219D02*
Y218500D01*
Y215219D02*
X338961D01*
X339302Y215375*
X339529Y215687*
X339529D02*
X339643Y216000D01*
X339756Y216469*
Y217250*
X339643Y217719*
X339529Y218031*
X339302Y218344*
X338961Y218500*
X338165*
X384543Y215219D02*
Y218500D01*
Y215219D02*
X385339D01*
X385680Y215375*
X385907Y215687*
X385907D02*
X386021Y216000D01*
X386134Y216469*
Y217250*
X386021Y217719*
X385907Y218031*
X385680Y218344*
X385339Y218500*
X384543*
X363677Y215219D02*
Y218500D01*
Y215219D02*
X364473D01*
X364814Y215375*
X365041Y215687*
X365041D02*
X365154Y216000D01*
X365268Y216469*
Y217250*
X365154Y217719*
X365041Y218031*
X364814Y218344*
X364473Y218500*
X363677*
X410055Y215219D02*
Y218500D01*
Y215219D02*
X410851D01*
X411191Y215375*
X411419Y215687*
X411419D02*
X411532Y216000D01*
X411646Y216469*
Y217250*
X411532Y217719*
X411419Y218031*
X411191Y218344*
X410851Y218500*
X410055*
X389189Y215219D02*
Y218500D01*
Y215219D02*
X389984D01*
X390325Y215375*
X390553Y215687*
X390553D02*
X390666Y216000D01*
X390780Y216469*
Y217250*
X390666Y217719*
X390553Y218031*
X390325Y218344*
X389984Y218500*
X389189*
X435567Y215219D02*
Y218500D01*
Y215219D02*
X436362D01*
X436703Y215375*
X436931Y215687*
X436931D02*
X437044Y216000D01*
X437158Y216469*
Y217250*
X437044Y217719*
X436931Y218031*
X436703Y218344*
X436362Y218500*
X435567*
X414701Y215219D02*
Y218500D01*
Y215219D02*
X415496D01*
X415837Y215375*
X416064Y215687*
X416064D02*
X416178Y216000D01*
X416292Y216469*
Y217250*
X416178Y217719*
X416064Y218031*
X415837Y218344*
X415496Y218500*
X414701*
X461079Y215219D02*
Y218500D01*
Y215219D02*
X461874D01*
X462215Y215375*
X462442Y215687*
X462442D02*
X462556Y216000D01*
X462670Y216469*
Y217250*
X462556Y217719*
X462442Y218031*
X462215Y218344*
X461874Y218500*
X461079*
X440213Y215219D02*
Y218500D01*
Y215219D02*
X441008D01*
X441349Y215375*
X441576Y215687*
X441576D02*
X441690Y216000D01*
X441804Y216469*
Y217250*
X441690Y217719*
X441576Y218031*
X441349Y218344*
X441008Y218500*
X440213*
X486591Y215219D02*
Y218500D01*
Y215219D02*
X487386D01*
X487727Y215375*
X487954Y215687*
X487954D02*
X488068Y216000D01*
X488181Y216469*
Y217250*
X488068Y217719*
X487954Y218031*
X487727Y218344*
X487386Y218500*
X486591*
X465724Y215219D02*
Y218500D01*
Y215219D02*
X466520D01*
X466861Y215375*
X467088Y215687*
X467088D02*
X467202Y216000D01*
X467315Y216469*
Y217250*
X467202Y217719*
X467088Y218031*
X466861Y218344*
X466520Y218500*
X465724*
X512102Y215219D02*
Y218500D01*
Y215219D02*
X512898D01*
X513239Y215375*
X513466Y215687*
X513466D02*
X513580Y216000D01*
X513693Y216469*
Y217250*
X513580Y217719*
X513466Y218031*
X513239Y218344*
X512898Y218500*
X512102*
X491236Y215219D02*
Y218500D01*
Y215219D02*
X492032D01*
X492373Y215375*
X492600Y215687*
X492600D02*
X492713Y216000D01*
X492827Y216469*
Y217250*
X492713Y217719*
X492600Y218031*
X492373Y218344*
X492032Y218500*
X491236*
G54D34*
X519000Y196082D02*
Y205309D01*
X519447Y207155*
X520342Y208385*
X521684Y209000*
X522579*
X523921Y208385*
X524816Y207155*
X525263Y205309*
Y196082*
X529737Y199157D02*
Y198542D01*
X530185Y197312*
X530632Y196697*
X531527Y196082*
X533316*
X534211Y196697*
X534659Y197312*
X535106Y198542*
Y199773*
X534659Y201003*
X533764Y202848*
X529290Y209000*
X535553*
G74*
X0Y0D02*
M02*
