*
*
G04 PADS VX.2.13 Build Number: 22185787 generated Gerber (RS-274-X) file*
G04 PC Version=2.1*
*
%IN "SummerCamp_TriangleLigh"*%
*
%MOIN*%
*
%FSLAX35Y35*%
*
*
*
*
G04 PC Standard Apertures*
*
*
G04 Thermal Relief Aperture macro.*
%AMTER*
1,1,$1,0,0*
1,0,$1-$2,0,0*
21,0,$3,$4,0,0,45*
21,0,$3,$4,0,0,135*
%
*
*
G04 Annular Aperture macro.*
%AMANN*
1,1,$1,0,0*
1,0,$2,0,0*
%
*
*
G04 Odd Aperture macro.*
%AMODD*
1,1,$1,0,0*
1,0,$1-0.005,0,0*
%
*
*
G04 PC Custom Aperture Macros*
*
*
*
*
*
*
G04 PC Aperture Table*
*
%ADD010C,0.001*%
%ADD011C,0.07*%
%ADD012C,0.06*%
%ADD016C,0.01*%
%ADD045R,0.05X0.06*%
%ADD046ANN,0.09843X0.09055*%
%ADD047O,0.23622X0.05118*%
%ADD048C,0.015*%
*
*
*
*
G04 PC Circuitry*
G04 Layer Name SummerCamp_TriangleLigh - circuitry*
%LPD*%
*
*
G04 PC Custom Flashes*
G04 Layer Name SummerCamp_TriangleLigh - flashes*
%LPD*%
*
*
G04 PC Circuitry*
G04 Layer Name SummerCamp_TriangleLigh - circuitry*
%LPD*%
*
G54D10*
G54D11*
G01X162902Y166287D03*
Y156287D03*
Y146287D03*
Y136287D03*
Y126287D03*
X212902D03*
Y136287D03*
Y146287D03*
Y156287D03*
Y166287D03*
X226484Y125697D03*
G54D12*
X145500Y106217D03*
Y116217D03*
Y126217D03*
Y136217D03*
Y146217D03*
Y156217D03*
Y166217D03*
Y176217D03*
G54D16*
X162902Y156287D02*
X175185D01*
X180028Y161130*
X215618*
X217823Y158925*
X236563*
X100500Y183177D02*
X250106D01*
Y100500*
X100500*
Y183177*
G54D45*
X224909Y106236D03*
Y115236D03*
G54D46*
X110500Y171248D03*
X242232Y111209D03*
X110500D03*
G54D47*
X236563Y158925D03*
Y146169D03*
Y133413D03*
G54D48*
X138571Y133146D02*
Y137902D01*
X142232Y141563*
X152862*
X157587Y146287*
X162902*
X138571Y133146D02*
X145500Y126217D01*
Y136217D02*
X162831D01*
X162902Y136287*
Y156287D02*
X170185Y163571D01*
Y172154*
X216286Y115236D02*
X224909D01*
X210354Y118374D02*
X213492Y115236D01*
X216286*
X210354Y118374D02*
X206575Y122154D01*
Y151681*
X211181Y156287*
X212902*
X226484Y125697D02*
X231996Y120185D01*
X224909Y106236D02*
X231996Y113323D01*
Y120185*
X212902Y146287D02*
X213020Y146169D01*
X236563*
X212902Y126287D02*
X220028Y133413D01*
X236563*
X167987Y174351D02*
X170185Y172154D01*
X159592Y176217D02*
X166122D01*
X167987Y174351*
X145500Y176217D02*
X159592D01*
X145500Y166217D02*
X162831D01*
X162902Y166287*
X0Y0D02*
M02*
