*
*
G04 PADS VX.2.13 Build Number: 22185787 generated Gerber (RS-274-X) file*
G04 PC Version=2.1*
*
%IN "SummerCamp_TriangleLigh"*%
*
%MOIN*%
*
%FSLAX35Y35*%
*
*
*
*
G04 PC Standard Apertures*
*
*
G04 Thermal Relief Aperture macro.*
%AMTER*
1,1,$1,0,0*
1,0,$1-$2,0,0*
21,0,$3,$4,0,0,45*
21,0,$3,$4,0,0,135*
%
*
*
G04 Annular Aperture macro.*
%AMANN*
1,1,$1,0,0*
1,0,$2,0,0*
%
*
*
G04 Odd Aperture macro.*
%AMODD*
1,1,$1,0,0*
1,0,$1-0.005,0,0*
%
*
*
G04 PC Custom Aperture Macros*
*
*
*
*
*
*
G04 PC Aperture Table*
*
%ADD010C,0.001*%
%ADD016C,0.01*%
*
*
*
*
G04 PC Circuitry*
G04 Layer Name SummerCamp_TriangleLigh - circuitry*
%LPD*%
*
*
G04 PC Custom Flashes*
G04 Layer Name SummerCamp_TriangleLigh - flashes*
%LPD*%
*
*
G04 PC Circuitry*
G04 Layer Name SummerCamp_TriangleLigh - circuitry*
%LPD*%
*
G54D10*
G01X137486Y381000D02*
X137489D01*
X137486Y463677D02*
X137489D01*
X287093Y381000D02*
X287095D01*
X137486D02*
X137489D01*
G54D16*
X100727Y423589D02*
Y423901D01*
X100955Y424526*
X101182Y424839*
X101636Y425151*
X102545*
X103000Y424839*
X103227Y424526*
X103455Y423901*
Y423276*
X103227Y422651*
X102773Y421714*
X100500Y418589*
X103682*
X105727Y423901D02*
X106182Y424214D01*
X106864Y425151*
Y418589*
X109136Y419214D02*
X108909Y418901D01*
X109136Y418589*
X109364Y418901*
X109136Y419214*
X112773Y425151D02*
X112091Y424839D01*
X111636Y423901*
X111409Y422339*
Y421401*
X111636Y419839*
X112091Y418901*
X112773Y418589*
X113227*
X113909Y418901*
X114364Y419839*
X114591Y421401*
Y422339*
X114364Y423901*
X113909Y424839*
X113227Y425151*
X112773*
X116636Y422964D02*
Y418589D01*
Y421714D02*
X117318Y422651D01*
X117773Y422964*
X118455*
X118909Y422651*
X119136Y421714*
Y418589*
Y421714D02*
X119818Y422651D01*
X120273Y422964*
X120955*
X121409Y422651*
X121636Y421714*
Y418589*
X123682Y422964D02*
Y418589D01*
Y421714D02*
X124364Y422651D01*
X124818Y422964*
X125500*
X125955Y422651*
X126182Y421714*
Y418589*
Y421714D02*
X126864Y422651D01*
X127318Y422964*
X128000*
X128455Y422651*
X128682Y421714*
Y418589*
X197176Y361765D02*
X199676D01*
X198312Y359265*
X198994*
X199449Y358953*
X199676Y358640*
X199903Y357703*
Y357078*
X199676Y356140*
X199221Y355515*
X198540Y355203*
X197858*
X197176Y355515*
X196949Y355828*
X196721Y356453*
X203085Y361765D02*
X202403Y361453D01*
X202176Y360828*
Y360203*
X202403Y359578*
X202858Y359265*
X203767Y358953*
X204449Y358640*
X204903Y358015*
X205130Y357390*
Y356453*
X204903Y355828*
X204676Y355515*
X203994Y355203*
X203085*
X202403Y355515*
X202176Y355828*
X201949Y356453*
Y357390*
X202176Y358015*
X202630Y358640*
X203312Y358953*
X204221Y359265*
X204676Y359578*
X204903Y360203*
Y360828*
X204676Y361453*
X203994Y361765*
X203085*
X207403Y355828D02*
X207176Y355515D01*
X207403Y355203*
X207630Y355515*
X207403Y355828*
X211040Y361765D02*
X210358Y361453D01*
X209903Y360515*
X209676Y358953*
Y358015*
X209903Y356453*
X210358Y355515*
X211040Y355203*
X211494*
X212176Y355515*
X212630Y356453*
X212858Y358015*
Y358953*
X212630Y360515*
X212176Y361453*
X211494Y361765*
X211040*
X214903Y359578D02*
Y355203D01*
Y358328D02*
X215585Y359265D01*
X216040Y359578*
X216721*
X217176Y359265*
X217403Y358328*
Y355203*
Y358328D02*
X218085Y359265D01*
X218540Y359578*
X219221*
X219676Y359265*
X219903Y358328*
Y355203*
X221949Y359578D02*
Y355203D01*
Y358328D02*
X222630Y359265D01*
X223085Y359578*
X223767*
X224221Y359265*
X224449Y358328*
Y355203*
Y358328D02*
X225130Y359265D01*
X225585Y359578*
X226267*
X226721Y359265*
X226949Y358328*
Y355203*
X195888Y442787D02*
X203888D01*
Y450787*
X195888*
Y442787*
X199888Y446787D02*
Y450787D01*
X195888Y432787D02*
X203888D01*
Y440787*
X195888*
Y432787*
X199888Y436787D02*
Y440787D01*
X195888Y422787D02*
X203888D01*
Y430787*
X195888*
Y422787*
X199888Y426787D02*
Y430787D01*
X195888Y412787D02*
X203888D01*
Y420787*
X195888*
Y412787*
X199888Y416787D02*
Y420787D01*
X195888Y402787D02*
X203888D01*
Y410787*
X195888*
Y402787*
X199888Y406787D02*
Y410787D01*
X245888Y402787D02*
X253888D01*
Y410787*
X245888*
Y402787*
X249888Y406787D02*
Y410787D01*
X245888Y412787D02*
X253888D01*
Y420787*
X245888*
Y412787*
X249888Y416787D02*
Y420787D01*
X245888Y422787D02*
X253888D01*
Y430787*
X245888*
Y422787*
X249888Y426787D02*
Y430787D01*
X245888Y432787D02*
X253888D01*
Y440787*
X245888*
Y432787*
X249888Y436787D02*
Y440787D01*
X245888Y442787D02*
X253888D01*
Y450787*
X245888*
Y442787*
X249888Y446787D02*
Y450787D01*
X178486Y382717D02*
X186486Y390717D01*
X178486D02*
X186486Y382717D01*
X178486Y392717D02*
X186486Y400717D01*
X178486D02*
X186486Y392717D01*
X178486Y402717D02*
X186486Y410717D01*
X178486D02*
X186486Y402717D01*
X178486Y412717D02*
X186486Y420717D01*
X178486D02*
X186486Y412717D01*
X178486Y422717D02*
X186486Y430717D01*
X178486D02*
X186486Y422717D01*
X178486Y432717D02*
X186486Y440717D01*
X178486D02*
X186486Y432717D01*
X178486Y442717D02*
X186486Y450717D01*
X178486D02*
X186486Y442717D01*
X178486Y452717D02*
X186486Y460717D01*
X178486D02*
X186486Y452717D01*
X143486Y451748D02*
X151486D01*
X147486Y447748D02*
Y455748D01*
X275219Y391709D02*
X283219D01*
X279219Y387709D02*
Y395709D01*
X143486Y391709D02*
X151486D01*
X147486Y387709D02*
Y395709D01*
X263471Y402197D02*
X267471Y406197D01*
X263471Y410197*
X259471Y406197*
X263471Y402197*
Y406197D02*
Y410197D01*
X137486Y463677D02*
X287093D01*
Y381000*
X137486*
Y463677*
X115045Y381000D02*
Y415589D01*
Y381000D02*
X112545Y391000D01*
X117545*
X115045Y381000*
Y463677D02*
Y429089D01*
Y463677D02*
X117545Y453677D01*
X112545*
X115045Y463677*
X132486Y381000D02*
X110045D01*
X132486Y463677D02*
X110045D01*
X287093Y358953D02*
X230858D01*
X287093D02*
X277093Y356453D01*
Y361453*
X287093Y358953*
X137486D02*
X193721D01*
X137486D02*
X147486Y361453D01*
Y356453*
X137486Y358953*
X287093Y376000D02*
Y353953D01*
X137486Y376000D02*
Y353953D01*
X650356Y220500D02*
X908356D01*
X650356Y196500D02*
X908356D01*
X650356Y172500D02*
X908356D01*
X650356Y148500D02*
X908356D01*
X650356Y124500D02*
X908356D01*
X650356Y100500D02*
X908356D01*
X650356Y220500D02*
Y100500D01*
X734356Y220500D02*
Y100500D01*
X770356Y220500D02*
Y100500D01*
X806356Y220500D02*
Y100500D01*
X860356Y220500D02*
Y100500D01*
X908356Y220500D02*
Y100500D01*
X685856Y209250D02*
X685311Y210000D01*
X684493Y210375*
X683402*
X682584Y210000*
X682038Y209250*
Y208500*
X682311Y207750*
X682584Y207375*
X683129Y207000*
X684766Y206250*
X685311Y205875*
X685584Y205500*
X685856Y204750*
Y203625*
X685311Y202875*
X684493Y202500*
X683402*
X682584Y202875*
X682038Y203625*
X688311Y210375D02*
Y202500D01*
X694584Y210375D02*
X690766Y202500D01*
Y210375D02*
X694584D01*
X690766Y202500D02*
X694584D01*
X697038Y210375D02*
Y202500D01*
Y210375D02*
X700584D01*
X697038Y206625D02*
X699220D01*
X697038Y202500D02*
X700584D01*
X744220Y210375D02*
X743675Y210000D01*
X743129Y209250*
X742856Y208500*
X742584Y207375*
Y205500*
X742856Y204375*
X743129Y203625*
X743675Y202875*
X744220Y202500*
X745311*
X745856Y202875*
X746402Y203625*
X746675Y204375*
X746947Y205500*
Y207375*
X746675Y208500*
X746402Y209250*
X745856Y210000*
X745311Y210375*
X744220*
X745038Y204000D02*
X746675Y201750D01*
X751311Y210375D02*
Y202500D01*
X749402Y210375D02*
X753220D01*
X755675D02*
X757856Y206625D01*
Y202500*
X760038Y210375D02*
X757856Y206625D01*
X782402Y209250D02*
X781856Y210000D01*
X781038Y210375*
X779947*
X779129Y210000*
X778584Y209250*
Y208500*
X778856Y207750*
X779129Y207375*
X779675Y207000*
X781311Y206250*
X781856Y205875*
X782129Y205500*
X782402Y204750*
Y203625*
X781856Y202875*
X781038Y202500*
X779947*
X779129Y202875*
X778584Y203625*
X784856Y210375D02*
X787038Y206625D01*
Y202500*
X789220Y210375D02*
X787038Y206625D01*
X791675Y210375D02*
Y202500D01*
Y210375D02*
X793856Y202500D01*
X796038Y210375D02*
X793856Y202500D01*
X796038Y210375D02*
Y202500D01*
X817856Y210375D02*
Y202500D01*
Y210375D02*
X820311D01*
X821129Y210000*
X821402Y209625*
X821675Y208875*
Y207750*
X821402Y207000*
X821129Y206625*
X820311Y206250*
X817856*
X824129Y210375D02*
Y202500D01*
X827402*
X832038Y210375D02*
X829856Y202500D01*
X832038Y210375D02*
X834220Y202500D01*
X830675Y205125D02*
X833402D01*
X838584Y210375D02*
Y202500D01*
X836675Y210375D02*
X840493D01*
X842947D02*
Y202500D01*
Y210375D02*
X846493D01*
X842947Y206625D02*
X845129D01*
X842947Y202500D02*
X846493D01*
X848947Y210375D02*
Y202500D01*
Y210375D02*
X850856D01*
X851675Y210000*
X852220Y209250*
X852493Y208500*
X852766Y207375*
Y205500*
X852493Y204375*
X852220Y203625*
X851675Y202875*
X850856Y202500*
X848947*
X877038Y210375D02*
Y202500D01*
X875129Y210375D02*
X878947D01*
X883038D02*
X882493Y210000D01*
X881947Y209250*
X881675Y208500*
X881402Y207375*
Y205500*
X881675Y204375*
X881947Y203625*
X882493Y202875*
X883038Y202500*
X884129*
X884675Y202875*
X885220Y203625*
X885493Y204375*
X885766Y205500*
Y207375*
X885493Y208500*
X885220Y209250*
X884675Y210000*
X884129Y210375*
X883038*
X888220D02*
Y202500D01*
X891493*
X657993Y186375D02*
X657175Y186000D01*
X656629Y184875*
X656356Y183000*
Y181875*
X656629Y180000*
X657175Y178875*
X657993Y178500*
X658538*
X659356Y178875*
X659902Y180000*
X660175Y181875*
Y183000*
X659902Y184875*
X659356Y186000*
X658538Y186375*
X657993*
X662902Y179250D02*
X662629Y178875D01*
X662902Y178500*
X663175Y178875*
X662902Y179250*
X667266Y186375D02*
X666447Y186000D01*
X665902Y184875*
X665629Y183000*
Y181875*
X665902Y180000*
X666447Y178875*
X667266Y178500*
X667811*
X668629Y178875*
X669175Y180000*
X669447Y181875*
Y183000*
X669175Y184875*
X668629Y186000*
X667811Y186375*
X667266*
X675447Y183750D02*
X675175Y182625D01*
X674629Y181875*
X673811Y181500*
X673538*
X672720Y181875*
X672175Y182625*
X671902Y183750*
Y184125*
X672175Y185250*
X672720Y186000*
X673538Y186375*
X673811*
X674629Y186000*
X675175Y185250*
X675447Y183750*
Y181875*
X675175Y180000*
X674629Y178875*
X673811Y178500*
X673266*
X672447Y178875*
X672175Y179625*
X679538Y186375D02*
X678720Y186000D01*
X678175Y184875*
X677902Y183000*
Y181875*
X678175Y180000*
X678720Y178875*
X679538Y178500*
X680084*
X680902Y178875*
X681447Y180000*
X681720Y181875*
Y183000*
X681447Y184875*
X680902Y186000*
X680084Y186375*
X679538*
X687720D02*
X684993D01*
X684720Y183000*
X684993Y183375*
X685811Y183750*
X686629*
X687447Y183375*
X687993Y182625*
X688266Y181500*
X687993Y180750*
X687720Y179625*
X687175Y178875*
X686356Y178500*
X685538*
X684720Y178875*
X684447Y179250*
X684175Y180000*
X694266Y186375D02*
X691538D01*
X691266Y183000*
X691538Y183375*
X692356Y183750*
X693175*
X693993Y183375*
X694538Y182625*
X694811Y181500*
X694538Y180750*
X694266Y179625*
X693720Y178875*
X692902Y178500*
X692084*
X691266Y178875*
X690993Y179250*
X690720Y180000*
X749947Y186375D02*
X752947D01*
X751311Y183375*
X752129*
X752675Y183000*
X752947Y182625*
X753220Y181500*
Y180750*
X752947Y179625*
X752402Y178875*
X751584Y178500*
X750766*
X749947Y178875*
X749675Y179250*
X749402Y180000*
X782356Y184500D02*
X794356D01*
X788356Y178500D02*
Y190500D01*
X814993Y186375D02*
X817175Y182625D01*
Y178500*
X819356Y186375D02*
X817175Y182625D01*
X821811Y186375D02*
Y178500D01*
Y186375D02*
X825356D01*
X821811Y182625D02*
X823993D01*
X821811Y178500D02*
X825356D01*
X831629Y185250D02*
X831084Y186000D01*
X830266Y186375*
X829175*
X828356Y186000*
X827811Y185250*
Y184500*
X828084Y183750*
X828356Y183375*
X828902Y183000*
X830538Y182250*
X831084Y181875*
X831356Y181500*
X831629Y180750*
Y179625*
X831084Y178875*
X830266Y178500*
X829175*
X828356Y178875*
X827811Y179625*
X868175Y185250D02*
Y178500D01*
X865720Y181875D02*
X870629D01*
X877993Y187875D02*
X873084Y175875D01*
X880447Y181875D02*
X885356D01*
X889447Y186375D02*
X888629Y186000D01*
X888084Y184875*
X887811Y183000*
Y181875*
X888084Y180000*
X888629Y178875*
X889447Y178500*
X889993*
X890811Y178875*
X891356Y180000*
X891629Y181875*
Y183000*
X891356Y184875*
X890811Y186000*
X889993Y186375*
X889447*
X894356Y179250D02*
X894084Y178875D01*
X894356Y178500*
X894629Y178875*
X894356Y179250*
X898720Y186375D02*
X897902Y186000D01*
X897356Y184875*
X897084Y183000*
Y181875*
X897356Y180000*
X897902Y178875*
X898720Y178500*
X899266*
X900084Y178875*
X900629Y180000*
X900902Y181875*
Y183000*
X900629Y184875*
X900084Y186000*
X899266Y186375*
X898720*
X657993Y162375D02*
X657175Y162000D01*
X656629Y160875*
X656356Y159000*
Y157875*
X656629Y156000*
X657175Y154875*
X657993Y154500*
X658538*
X659356Y154875*
X659902Y156000*
X660175Y157875*
Y159000*
X659902Y160875*
X659356Y162000*
X658538Y162375*
X657993*
X662902Y155250D02*
X662629Y154875D01*
X662902Y154500*
X663175Y154875*
X662902Y155250*
X667266Y162375D02*
X666447Y162000D01*
X665902Y160875*
X665629Y159000*
Y157875*
X665902Y156000*
X666447Y154875*
X667266Y154500*
X667811*
X668629Y154875*
X669175Y156000*
X669447Y157875*
Y159000*
X669175Y160875*
X668629Y162000*
X667811Y162375*
X667266*
X672447D02*
X675447D01*
X673811Y159375*
X674629*
X675175Y159000*
X675447Y158625*
X675720Y157500*
Y156750*
X675447Y155625*
X674902Y154875*
X674084Y154500*
X673266*
X672447Y154875*
X672175Y155250*
X671902Y156000*
X681720Y162375D02*
X678993D01*
X678720Y159000*
X678993Y159375*
X679811Y159750*
X680629*
X681447Y159375*
X681993Y158625*
X682266Y157500*
X681993Y156750*
X681720Y155625*
X681175Y154875*
X680356Y154500*
X679538*
X678720Y154875*
X678447Y155250*
X678175Y156000*
X750766Y162375D02*
X749947Y162000D01*
X749675Y161250*
Y160500*
X749947Y159750*
X750493Y159375*
X751584Y159000*
X752402Y158625*
X752947Y157875*
X753220Y157125*
Y156000*
X752947Y155250*
X752675Y154875*
X751856Y154500*
X750766*
X749947Y154875*
X749675Y155250*
X749402Y156000*
Y157125*
X749675Y157875*
X750220Y158625*
X751038Y159000*
X752129Y159375*
X752675Y159750*
X752947Y160500*
Y161250*
X752675Y162000*
X751856Y162375*
X750766*
X782356Y154500D02*
X794356Y166500D01*
X782356D02*
X794356Y154500D01*
X814993Y162375D02*
X817175Y158625D01*
Y154500*
X819356Y162375D02*
X817175Y158625D01*
X821811Y162375D02*
Y154500D01*
Y162375D02*
X825356D01*
X821811Y158625D02*
X823993D01*
X821811Y154500D02*
X825356D01*
X831629Y161250D02*
X831084Y162000D01*
X830266Y162375*
X829175*
X828356Y162000*
X827811Y161250*
Y160500*
X828084Y159750*
X828356Y159375*
X828902Y159000*
X830538Y158250*
X831084Y157875*
X831356Y157500*
X831629Y156750*
Y155625*
X831084Y154875*
X830266Y154500*
X829175*
X828356Y154875*
X827811Y155625*
X868175Y161250D02*
Y154500D01*
X865720Y157875D02*
X870629D01*
X877993Y163875D02*
X873084Y151875D01*
X880447Y157875D02*
X885356D01*
X889447Y162375D02*
X888629Y162000D01*
X888084Y160875*
X887811Y159000*
Y157875*
X888084Y156000*
X888629Y154875*
X889447Y154500*
X889993*
X890811Y154875*
X891356Y156000*
X891629Y157875*
Y159000*
X891356Y160875*
X890811Y162000*
X889993Y162375*
X889447*
X894356Y155250D02*
X894084Y154875D01*
X894356Y154500*
X894629Y154875*
X894356Y155250*
X898720Y162375D02*
X897902Y162000D01*
X897356Y160875*
X897084Y159000*
Y157875*
X897356Y156000*
X897902Y154875*
X898720Y154500*
X899266*
X900084Y154875*
X900629Y156000*
X900902Y157875*
Y159000*
X900629Y160875*
X900084Y162000*
X899266Y162375*
X898720*
X657993Y138375D02*
X657175Y138000D01*
X656629Y136875*
X656356Y135000*
Y133875*
X656629Y132000*
X657175Y130875*
X657993Y130500*
X658538*
X659356Y130875*
X659902Y132000*
X660175Y133875*
Y135000*
X659902Y136875*
X659356Y138000*
X658538Y138375*
X657993*
X662902Y131250D02*
X662629Y130875D01*
X662902Y130500*
X663175Y130875*
X662902Y131250*
X667266Y138375D02*
X666447Y138000D01*
X665902Y136875*
X665629Y135000*
Y133875*
X665902Y132000*
X666447Y130875*
X667266Y130500*
X667811*
X668629Y130875*
X669175Y132000*
X669447Y133875*
Y135000*
X669175Y136875*
X668629Y138000*
X667811Y138375*
X667266*
X674629D02*
X671902Y133125D01*
X675993*
X674629Y138375D02*
Y130500D01*
X747493Y136875D02*
X748038Y137250D01*
X748856Y138375*
Y130500*
X752947Y138375D02*
X752129Y138000D01*
X751584Y136875*
X751311Y135000*
Y133875*
X751584Y132000*
X752129Y130875*
X752947Y130500*
X753493*
X754311Y130875*
X754856Y132000*
X755129Y133875*
Y135000*
X754856Y136875*
X754311Y138000*
X753493Y138375*
X752947*
X782356Y130500D02*
X794356D01*
Y142500*
X782356*
Y130500*
X788356Y136500D02*
Y142500D01*
X814993Y138375D02*
X817175Y134625D01*
Y130500*
X819356Y138375D02*
X817175Y134625D01*
X821811Y138375D02*
Y130500D01*
Y138375D02*
X825356D01*
X821811Y134625D02*
X823993D01*
X821811Y130500D02*
X825356D01*
X831629Y137250D02*
X831084Y138000D01*
X830266Y138375*
X829175*
X828356Y138000*
X827811Y137250*
Y136500*
X828084Y135750*
X828356Y135375*
X828902Y135000*
X830538Y134250*
X831084Y133875*
X831356Y133500*
X831629Y132750*
Y131625*
X831084Y130875*
X830266Y130500*
X829175*
X828356Y130875*
X827811Y131625*
X868175Y137250D02*
Y130500D01*
X865720Y133875D02*
X870629D01*
X877993Y139875D02*
X873084Y127875D01*
X880447Y133875D02*
X885356D01*
X889447Y138375D02*
X888629Y138000D01*
X888084Y136875*
X887811Y135000*
Y133875*
X888084Y132000*
X888629Y130875*
X889447Y130500*
X889993*
X890811Y130875*
X891356Y132000*
X891629Y133875*
Y135000*
X891356Y136875*
X890811Y138000*
X889993Y138375*
X889447*
X894356Y131250D02*
X894084Y130875D01*
X894356Y130500*
X894629Y130875*
X894356Y131250*
X898720Y138375D02*
X897902Y138000D01*
X897356Y136875*
X897084Y135000*
Y133875*
X897356Y132000*
X897902Y130875*
X898720Y130500*
X899266*
X900084Y130875*
X900629Y132000*
X900902Y133875*
Y135000*
X900629Y136875*
X900084Y138000*
X899266Y138375*
X898720*
X657993Y114375D02*
X657175Y114000D01*
X656629Y112875*
X656356Y111000*
Y109875*
X656629Y108000*
X657175Y106875*
X657993Y106500*
X658538*
X659356Y106875*
X659902Y108000*
X660175Y109875*
Y111000*
X659902Y112875*
X659356Y114000*
X658538Y114375*
X657993*
X662902Y107250D02*
X662629Y106875D01*
X662902Y106500*
X663175Y106875*
X662902Y107250*
X667266Y114375D02*
X666447Y114000D01*
X665902Y112875*
X665629Y111000*
Y109875*
X665902Y108000*
X666447Y106875*
X667266Y106500*
X667811*
X668629Y106875*
X669175Y108000*
X669447Y109875*
Y111000*
X669175Y112875*
X668629Y114000*
X667811Y114375*
X667266*
X674629D02*
X671902Y109125D01*
X675993*
X674629Y114375D02*
Y106500D01*
X678447Y112875D02*
X678993Y113250D01*
X679811Y114375*
Y106500*
X750629Y112875D02*
X751175Y113250D01*
X751993Y114375*
Y106500*
X788356D02*
X794356Y112500D01*
X788356Y118500*
X782356Y112500*
X788356Y106500*
Y112500D02*
Y118500D01*
X814993Y114375D02*
X817175Y110625D01*
Y106500*
X819356Y114375D02*
X817175Y110625D01*
X821811Y114375D02*
Y106500D01*
Y114375D02*
X825356D01*
X821811Y110625D02*
X823993D01*
X821811Y106500D02*
X825356D01*
X831629Y113250D02*
X831084Y114000D01*
X830266Y114375*
X829175*
X828356Y114000*
X827811Y113250*
Y112500*
X828084Y111750*
X828356Y111375*
X828902Y111000*
X830538Y110250*
X831084Y109875*
X831356Y109500*
X831629Y108750*
Y107625*
X831084Y106875*
X830266Y106500*
X829175*
X828356Y106875*
X827811Y107625*
X868175Y113250D02*
Y106500D01*
X865720Y109875D02*
X870629D01*
X877993Y115875D02*
X873084Y103875D01*
X880447Y109875D02*
X885356D01*
X889447Y114375D02*
X888629Y114000D01*
X888084Y112875*
X887811Y111000*
Y109875*
X888084Y108000*
X888629Y106875*
X889447Y106500*
X889993*
X890811Y106875*
X891356Y108000*
X891629Y109875*
Y111000*
X891356Y112875*
X890811Y114000*
X889993Y114375*
X889447*
X894356Y107250D02*
X894084Y106875D01*
X894356Y106500*
X894629Y106875*
X894356Y107250*
X898720Y114375D02*
X897902Y114000D01*
X897356Y112875*
X897084Y111000*
Y109875*
X897356Y108000*
X897902Y106875*
X898720Y106500*
X899266*
X900084Y106875*
X900629Y108000*
X900902Y109875*
Y111000*
X900629Y112875*
X900084Y114000*
X899266Y114375*
X898720*
X0Y0D02*
M02*
