M48
;FILE_FORMAT=2:4
INCH,LZ
FMAT,2
ICI,OFF
;TYPE=PLATED
T1C.035
T2C.04
T3C.041
T4C.09055
%
M72
G90
G93X0Y0
T1C.035F197S55
X0145Y010572
X0145Y011572
X0145Y012572
X0145Y013572
X0145Y014572
X0145Y015572
X0145Y016572
X0145Y017572
T2C.04F139S55
X01624Y012579
X01624Y013579
X01624Y014579
X01624Y015579
X01624Y016579
X02124Y016579
X02124Y015579
X02124Y014579
X02124Y013579
X02124Y012579
T3C.041F139S55
X022598Y01252
T4C.09055F066S55
X011Y011071
X011Y017075
X024173Y011071
M30
