*
*
G04 PADS VX.2.11 Build Number: 20124196 generated Gerber (RS-274-X) file*
G04 PC Version=2.1*
*
%IN "SummerCamp_NightLight.p"*%
*
%MOIN*%
*
%FSLAX35Y35*%
*
*
*
*
G04 PC Standard Apertures*
*
*
G04 Thermal Relief Aperture macro.*
%AMTER*
1,1,$1,0,0*
1,0,$1-$2,0,0*
21,0,$3,$4,0,0,45*
21,0,$3,$4,0,0,135*
%
*
*
G04 Annular Aperture macro.*
%AMANN*
1,1,$1,0,0*
1,0,$2,0,0*
%
*
*
G04 Odd Aperture macro.*
%AMODD*
1,1,$1,0,0*
1,0,$1-0.005,0,0*
%
*
*
G04 PC Custom Aperture Macros*
*
*
*
*
*
*
G04 PC Aperture Table*
*
%ADD010C,0.001*%
%ADD011C,0.07*%
%ADD012C,0.06*%
%ADD013R,0.06X0.05*%
%ADD014C,0.09055*%
%ADD016C,0.01*%
%ADD025C,0.005*%
*
*
*
*
G04 PC Circuitry*
G04 Layer Name SummerCamp_NightLight.p - circuitry*
%LPD*%
*
*
G04 PC Custom Flashes*
G04 Layer Name SummerCamp_NightLight.p - flashes*
%LPD*%
*
*
G04 PC Circuitry*
G04 Layer Name SummerCamp_NightLight.p - circuitry*
%LPD*%
*
G54D10*
G54D11*
G01X256500Y173500D03*
X246500D03*
X236500D03*
X226500D03*
X216500D03*
Y123500D03*
X226500D03*
X236500D03*
X246500D03*
X256500D03*
X327500Y120000D03*
X407500D03*
G54D12*
X145500Y106000D03*
Y116000D03*
Y126000D03*
Y136000D03*
Y146000D03*
Y156000D03*
Y166000D03*
Y176000D03*
X327500Y139000D03*
X367500D03*
G54D13*
X343000Y150000D03*
X352000D03*
G54D14*
X111750Y218500D03*
X562250D03*
X170000Y111500D03*
X562250D03*
G54D16*
X337500Y136000D02*
Y142000D01*
X357500*
Y136000*
X337500*
Y139000D02*
X331500D01*
X357500D02*
X362500D01*
X346000Y154500D02*
X338000D01*
Y145500*
X346000*
X349000Y154500D02*
X357000D01*
Y145500*
X349000*
X397500Y120000D02*
X402500D01*
X337500Y107500D02*
X397500D01*
Y132500*
X337500*
Y107500*
Y120000D02*
X332500D01*
X236000Y116844D02*
Y109813D01*
X236000D02*
X236341Y108406D01*
X237023Y107469*
X238045Y107000*
X238727*
X239750Y107469*
X240432Y108406*
X240773Y109813*
X240773D02*
Y116844D01*
X243841Y114969D02*
X244523Y115438D01*
X244523D02*
X245545Y116844D01*
Y107000*
X157656Y133500D02*
X164687D01*
X166094Y133841*
X167031Y134523*
X167500Y135545*
Y136227*
X167031Y137250*
X166094Y137932*
X164687Y138273*
X157656*
Y142023D02*
Y145773D01*
X161406Y143727*
Y144750*
X161875Y145432*
X162344Y145773*
X163750Y146114*
X164687*
X166094Y145773*
X167031Y145091*
X167500Y144068*
Y143045*
X167031Y142023*
X166562Y141682*
X165625Y141341*
X372500Y142563D02*
Y136000D01*
Y142563D02*
X374545D01*
X374545D02*
X375227Y142250D01*
X375455Y141938*
X375455D02*
X375682Y141313D01*
X375682D02*
Y140688D01*
X375682D02*
X375455Y140063D01*
X375455D02*
X375227Y139750D01*
X374545Y139438*
X374545D02*
X372500D01*
X374091D02*
X375682Y136000D01*
X377727Y141313D02*
X378182Y141625D01*
X378864Y142563*
X378864D02*
Y136000D01*
X359500Y153563D02*
Y147000D01*
Y153563D02*
X361545D01*
X361545D02*
X362227Y153250D01*
X362455Y152938*
X362455D02*
X362682Y152313D01*
X362682D02*
Y151688D01*
X362682D02*
X362455Y151063D01*
X362455D02*
X362227Y150750D01*
X361545Y150438*
X361545D02*
X359500D01*
X361091D02*
X362682Y147000D01*
X364955Y152000D02*
Y152313D01*
X364955D02*
X365182Y152938D01*
X365182D02*
X365409Y153250D01*
X365864Y153563*
X365864D02*
X366773D01*
X366773D02*
X367227Y153250D01*
X367455Y152938*
X367455D02*
X367682Y152313D01*
X367682D02*
Y151688D01*
X367682D02*
X367455Y151063D01*
X367455D02*
X367000Y150125D01*
X364727Y147000*
X367909*
X362000Y124563D02*
Y118000D01*
Y124563D02*
X364045D01*
X364045D02*
X364727Y124250D01*
X364955Y123938*
X364955D02*
X365182Y123313D01*
X365182D02*
Y122688D01*
X365182D02*
X364955Y122063D01*
X364955D02*
X364727Y121750D01*
X364045Y121438*
X364045D02*
X362000D01*
X363591D02*
X365182Y118000D01*
X367682Y124563D02*
X370182D01*
X370182D02*
X368818Y122063D01*
X368818D02*
X369500D01*
X369500D02*
X369955Y121750D01*
X370182Y121438*
X370182D02*
X370409Y120500D01*
Y119875*
X370182Y118938*
X370182D02*
X369727Y118313D01*
X369727D02*
X369045Y118000D01*
X368364*
X367682Y118313*
X367682D02*
X367455Y118625D01*
X367227Y119250*
X100500Y241500D02*
X573500D01*
Y100500*
X100500*
Y241500*
G54D25*
X562250Y114781D02*
Y112438D01*
X562250D02*
X562364Y111969D01*
X562591Y111656*
X562932Y111500*
X563159*
X563500Y111656*
X563727Y111969*
X563841Y112438*
X563841D02*
Y114781D01*
X566455D02*
X565318Y111500D01*
X564864Y114781D02*
X566455D01*
X0Y0D02*
M02*
