*
*
G04 PADS VX.2.11 Build Number: 20124196 generated Gerber (RS-274-X) file*
G04 PC Version=2.1*
*
%IN "SummerCamp_NightLight.p"*%
*
%MOIN*%
*
%FSLAX35Y35*%
*
*
*
*
G04 PC Standard Apertures*
*
*
G04 Thermal Relief Aperture macro.*
%AMTER*
1,1,$1,0,0*
1,0,$1-$2,0,0*
21,0,$3,$4,0,0,45*
21,0,$3,$4,0,0,135*
%
*
*
G04 Annular Aperture macro.*
%AMANN*
1,1,$1,0,0*
1,0,$2,0,0*
%
*
*
G04 Odd Aperture macro.*
%AMODD*
1,1,$1,0,0*
1,0,$1-0.005,0,0*
%
*
*
G04 PC Custom Aperture Macros*
*
*
*
*
*
*
G04 PC Aperture Table*
*
%ADD010C,0.001*%
%ADD016C,0.01*%
*
*
*
*
G04 PC Circuitry*
G04 Layer Name SummerCamp_NightLight.p - circuitry*
%LPD*%
*
*
G04 PC Custom Flashes*
G04 Layer Name SummerCamp_NightLight.p - flashes*
%LPD*%
*
*
G04 PC Circuitry*
G04 Layer Name SummerCamp_NightLight.p - circuitry*
%LPD*%
*
G54D10*
G54D16*
G01X252500Y299000D02*
X260500D01*
Y307000*
X252500*
Y299000*
X256500Y303000D02*
Y307000D01*
X242500Y299000D02*
X250500D01*
Y307000*
X242500*
Y299000*
X246500Y303000D02*
Y307000D01*
X232500Y299000D02*
X240500D01*
Y307000*
X232500*
Y299000*
X236500Y303000D02*
Y307000D01*
X222500Y299000D02*
X230500D01*
Y307000*
X222500*
Y299000*
X226500Y303000D02*
Y307000D01*
X212500Y299000D02*
X220500D01*
Y307000*
X212500*
Y299000*
X216500Y303000D02*
Y307000D01*
X212500Y249000D02*
X220500D01*
Y257000*
X212500*
Y249000*
X216500Y253000D02*
Y257000D01*
X222500Y249000D02*
X230500D01*
Y257000*
X222500*
Y249000*
X226500Y253000D02*
Y257000D01*
X232500Y249000D02*
X240500D01*
Y257000*
X232500*
Y249000*
X236500Y253000D02*
Y257000D01*
X242500Y249000D02*
X250500D01*
Y257000*
X242500*
Y249000*
X246500Y253000D02*
Y257000D01*
X252500Y249000D02*
X260500D01*
Y257000*
X252500*
Y249000*
X256500Y253000D02*
Y257000D01*
X141500Y235500D02*
X149500D01*
X145500Y231500D02*
Y239500D01*
X141500Y245500D02*
X149500D01*
X145500Y241500D02*
Y249500D01*
X141500Y255500D02*
X149500D01*
X145500Y251500D02*
Y259500D01*
X141500Y265500D02*
X149500D01*
X145500Y261500D02*
Y269500D01*
X141500Y275500D02*
X149500D01*
X145500Y271500D02*
Y279500D01*
X141500Y285500D02*
X149500D01*
X145500Y281500D02*
Y289500D01*
X141500Y295500D02*
X149500D01*
X145500Y291500D02*
Y299500D01*
X141500Y305500D02*
X149500D01*
X145500Y301500D02*
Y309500D01*
X327500Y264500D02*
X331500Y268500D01*
X327500Y272500*
X323500Y268500*
X327500Y264500*
Y268500D02*
Y272500D01*
X367500Y264500D02*
X371500Y268500D01*
X367500Y272500*
X363500Y268500*
X367500Y264500*
Y268500D02*
Y272500D01*
X323500Y245500D02*
X331500Y253500D01*
X323500D02*
X331500Y245500D01*
X403500D02*
X411500Y253500D01*
X403500D02*
X411500Y245500D01*
X107750Y344000D02*
X115750D01*
X107750Y352000*
X115750*
X107750Y344000*
X558250D02*
X566250D01*
X558250Y352000*
X566250*
X558250Y344000*
X166000Y237000D02*
X174000D01*
X166000Y245000*
X174000*
X166000Y237000*
X558250D02*
X566250D01*
X558250Y245000*
X566250*
X558250Y237000*
X100500Y371000D02*
X573500D01*
Y230000*
X100500*
Y371000*
X849870Y244500D02*
X1107870D01*
X849870Y220500D02*
X1107870D01*
X849870Y196500D02*
X1107870D01*
X849870Y172500D02*
X1107870D01*
X849870Y148500D02*
X1107870D01*
X849870Y124500D02*
X1107870D01*
X849870Y100500D02*
X1107870D01*
X849870Y244500D02*
Y100500D01*
X933870Y244500D02*
Y100500D01*
X969870Y244500D02*
Y100500D01*
X1005870Y244500D02*
Y100500D01*
X1059870Y244500D02*
Y100500D01*
X1107870Y244500D02*
Y100500D01*
X885370Y233250D02*
X884825Y234000D01*
X884006Y234375*
X882916*
X882097Y234000*
X881552Y233250*
Y232500*
X881825Y231750*
X882097Y231375*
X882643Y231000*
X884279Y230250*
X884825Y229875*
X885097Y229500*
X885370Y228750*
Y227625*
X884825Y226875*
X884006Y226500*
X882916*
X882097Y226875*
X881552Y227625*
X887825Y234375D02*
Y226500D01*
X894097Y234375D02*
X890279Y226500D01*
Y234375D02*
X894097D01*
X890279Y226500D02*
X894097D01*
X896552Y234375D02*
Y226500D01*
Y234375D02*
X900097D01*
X896552Y230625D02*
X898734D01*
X896552Y226500D02*
X900097D01*
X943734Y234375D02*
X943188Y234000D01*
X942643Y233250*
X942370Y232500*
X942097Y231375*
Y229500*
X942370Y228375*
X942643Y227625*
X943188Y226875*
X943734Y226500*
X944825*
X945370Y226875*
X945916Y227625*
X946188Y228375*
X946461Y229500*
Y231375*
X946188Y232500*
X945916Y233250*
X945370Y234000*
X944825Y234375*
X943734*
X944552Y228000D02*
X946188Y225750D01*
X950825Y234375D02*
Y226500D01*
X948916Y234375D02*
X952734D01*
X955188D02*
X957370Y230625D01*
Y226500*
X959552Y234375D02*
X957370Y230625D01*
X981916Y233250D02*
X981370Y234000D01*
X980552Y234375*
X979461*
X978643Y234000*
X978097Y233250*
Y232500*
X978370Y231750*
X978643Y231375*
X979188Y231000*
X980825Y230250*
X981370Y229875*
X981643Y229500*
X981916Y228750*
Y227625*
X981370Y226875*
X980552Y226500*
X979461*
X978643Y226875*
X978097Y227625*
X984370Y234375D02*
X986552Y230625D01*
Y226500*
X988734Y234375D02*
X986552Y230625D01*
X991188Y234375D02*
Y226500D01*
Y234375D02*
X993370Y226500D01*
X995552Y234375D02*
X993370Y226500D01*
X995552Y234375D02*
Y226500D01*
X1017370Y234375D02*
Y226500D01*
Y234375D02*
X1019825D01*
X1020643Y234000*
X1020916Y233625*
X1021188Y232875*
Y231750*
X1020916Y231000*
X1020643Y230625*
X1019825Y230250*
X1017370*
X1023643Y234375D02*
Y226500D01*
X1026916*
X1031552Y234375D02*
X1029370Y226500D01*
X1031552Y234375D02*
X1033734Y226500D01*
X1030188Y229125D02*
X1032916D01*
X1038097Y234375D02*
Y226500D01*
X1036188Y234375D02*
X1040006D01*
X1042461D02*
Y226500D01*
Y234375D02*
X1046006D01*
X1042461Y230625D02*
X1044643D01*
X1042461Y226500D02*
X1046006D01*
X1048461Y234375D02*
Y226500D01*
Y234375D02*
X1050370D01*
X1051188Y234000*
X1051734Y233250*
X1052006Y232500*
X1052279Y231375*
Y229500*
X1052006Y228375*
X1051734Y227625*
X1051188Y226875*
X1050370Y226500*
X1048461*
X1076552Y234375D02*
Y226500D01*
X1074643Y234375D02*
X1078461D01*
X1082552D02*
X1082006Y234000D01*
X1081461Y233250*
X1081188Y232500*
X1080916Y231375*
Y229500*
X1081188Y228375*
X1081461Y227625*
X1082006Y226875*
X1082552Y226500*
X1083643*
X1084188Y226875*
X1084734Y227625*
X1085006Y228375*
X1085279Y229500*
Y231375*
X1085006Y232500*
X1084734Y233250*
X1084188Y234000*
X1083643Y234375*
X1082552*
X1087734D02*
Y226500D01*
X1091006*
X857506Y210375D02*
X856688Y210000D01*
X856143Y208875*
X855870Y207000*
Y205875*
X856143Y204000*
X856688Y202875*
X857506Y202500*
X858052*
X858870Y202875*
X859416Y204000*
X859688Y205875*
Y207000*
X859416Y208875*
X858870Y210000*
X858052Y210375*
X857506*
X862416Y203250D02*
X862143Y202875D01*
X862416Y202500*
X862688Y202875*
X862416Y203250*
X866779Y210375D02*
X865961Y210000D01*
X865416Y208875*
X865143Y207000*
Y205875*
X865416Y204000*
X865961Y202875*
X866779Y202500*
X867325*
X868143Y202875*
X868688Y204000*
X868961Y205875*
Y207000*
X868688Y208875*
X868143Y210000*
X867325Y210375*
X866779*
X871961D02*
X874961D01*
X873325Y207375*
X874143*
X874688Y207000*
X874961Y206625*
X875234Y205500*
Y204750*
X874961Y203625*
X874416Y202875*
X873597Y202500*
X872779*
X871961Y202875*
X871688Y203250*
X871416Y204000*
X881234Y210375D02*
X878506D01*
X878234Y207000*
X878506Y207375*
X879325Y207750*
X880143*
X880961Y207375*
X881506Y206625*
X881779Y205500*
X881506Y204750*
X881234Y203625*
X880688Y202875*
X879870Y202500*
X879052*
X878234Y202875*
X877961Y203250*
X877688Y204000*
X950279Y210375D02*
X949461Y210000D01*
X949188Y209250*
Y208500*
X949461Y207750*
X950006Y207375*
X951097Y207000*
X951916Y206625*
X952461Y205875*
X952734Y205125*
Y204000*
X952461Y203250*
X952188Y202875*
X951370Y202500*
X950279*
X949461Y202875*
X949188Y203250*
X948916Y204000*
Y205125*
X949188Y205875*
X949734Y206625*
X950552Y207000*
X951643Y207375*
X952188Y207750*
X952461Y208500*
Y209250*
X952188Y210000*
X951370Y210375*
X950279*
X981870Y208500D02*
X993870D01*
X987870Y202500D02*
Y214500D01*
X1014506Y210375D02*
X1016688Y206625D01*
Y202500*
X1018870Y210375D02*
X1016688Y206625D01*
X1021325Y210375D02*
Y202500D01*
Y210375D02*
X1024870D01*
X1021325Y206625D02*
X1023506D01*
X1021325Y202500D02*
X1024870D01*
X1031143Y209250D02*
X1030597Y210000D01*
X1029779Y210375*
X1028688*
X1027870Y210000*
X1027325Y209250*
Y208500*
X1027597Y207750*
X1027870Y207375*
X1028416Y207000*
X1030052Y206250*
X1030597Y205875*
X1030870Y205500*
X1031143Y204750*
Y203625*
X1030597Y202875*
X1029779Y202500*
X1028688*
X1027870Y202875*
X1027325Y203625*
X1067688Y209250D02*
Y202500D01*
X1065234Y205875D02*
X1070143D01*
X1077506Y211875D02*
X1072597Y199875D01*
X1079961Y205875D02*
X1084870D01*
X1088961Y210375D02*
X1088143Y210000D01*
X1087597Y208875*
X1087325Y207000*
Y205875*
X1087597Y204000*
X1088143Y202875*
X1088961Y202500*
X1089506*
X1090325Y202875*
X1090870Y204000*
X1091143Y205875*
Y207000*
X1090870Y208875*
X1090325Y210000*
X1089506Y210375*
X1088961*
X1093870Y203250D02*
X1093597Y202875D01*
X1093870Y202500*
X1094143Y202875*
X1093870Y203250*
X1098234Y210375D02*
X1097416Y210000D01*
X1096870Y208875*
X1096597Y207000*
Y205875*
X1096870Y204000*
X1097416Y202875*
X1098234Y202500*
X1098779*
X1099597Y202875*
X1100143Y204000*
X1100416Y205875*
Y207000*
X1100143Y208875*
X1099597Y210000*
X1098779Y210375*
X1098234*
X857506Y186375D02*
X856688Y186000D01*
X856143Y184875*
X855870Y183000*
Y181875*
X856143Y180000*
X856688Y178875*
X857506Y178500*
X858052*
X858870Y178875*
X859416Y180000*
X859688Y181875*
Y183000*
X859416Y184875*
X858870Y186000*
X858052Y186375*
X857506*
X862416Y179250D02*
X862143Y178875D01*
X862416Y178500*
X862688Y178875*
X862416Y179250*
X866779Y186375D02*
X865961Y186000D01*
X865416Y184875*
X865143Y183000*
Y181875*
X865416Y180000*
X865961Y178875*
X866779Y178500*
X867325*
X868143Y178875*
X868688Y180000*
X868961Y181875*
Y183000*
X868688Y184875*
X868143Y186000*
X867325Y186375*
X866779*
X874143D02*
X871416Y181125D01*
X875506*
X874143Y186375D02*
Y178500D01*
X877961Y184875D02*
X878506Y185250D01*
X879325Y186375*
Y178500*
X949188Y184500D02*
Y184875D01*
X949461Y185625*
X949734Y186000*
X950279Y186375*
X951370*
X951916Y186000*
X952188Y185625*
X952461Y184875*
Y184125*
X952188Y183375*
X951643Y182250*
X948916Y178500*
X952734*
X981870D02*
X993870Y190500D01*
X981870D02*
X993870Y178500D01*
X1014506Y186375D02*
X1016688Y182625D01*
Y178500*
X1018870Y186375D02*
X1016688Y182625D01*
X1021325Y186375D02*
Y178500D01*
Y186375D02*
X1024870D01*
X1021325Y182625D02*
X1023506D01*
X1021325Y178500D02*
X1024870D01*
X1031143Y185250D02*
X1030597Y186000D01*
X1029779Y186375*
X1028688*
X1027870Y186000*
X1027325Y185250*
Y184500*
X1027597Y183750*
X1027870Y183375*
X1028416Y183000*
X1030052Y182250*
X1030597Y181875*
X1030870Y181500*
X1031143Y180750*
Y179625*
X1030597Y178875*
X1029779Y178500*
X1028688*
X1027870Y178875*
X1027325Y179625*
X1067688Y185250D02*
Y178500D01*
X1065234Y181875D02*
X1070143D01*
X1077506Y187875D02*
X1072597Y175875D01*
X1079961Y181875D02*
X1084870D01*
X1088961Y186375D02*
X1088143Y186000D01*
X1087597Y184875*
X1087325Y183000*
Y181875*
X1087597Y180000*
X1088143Y178875*
X1088961Y178500*
X1089506*
X1090325Y178875*
X1090870Y180000*
X1091143Y181875*
Y183000*
X1090870Y184875*
X1090325Y186000*
X1089506Y186375*
X1088961*
X1093870Y179250D02*
X1093597Y178875D01*
X1093870Y178500*
X1094143Y178875*
X1093870Y179250*
X1098234Y186375D02*
X1097416Y186000D01*
X1096870Y184875*
X1096597Y183000*
Y181875*
X1096870Y180000*
X1097416Y178875*
X1098234Y178500*
X1098779*
X1099597Y178875*
X1100143Y180000*
X1100416Y181875*
Y183000*
X1100143Y184875*
X1099597Y186000*
X1098779Y186375*
X1098234*
X857506Y162375D02*
X856688Y162000D01*
X856143Y160875*
X855870Y159000*
Y157875*
X856143Y156000*
X856688Y154875*
X857506Y154500*
X858052*
X858870Y154875*
X859416Y156000*
X859688Y157875*
Y159000*
X859416Y160875*
X858870Y162000*
X858052Y162375*
X857506*
X862416Y155250D02*
X862143Y154875D01*
X862416Y154500*
X862688Y154875*
X862416Y155250*
X866779Y162375D02*
X865961Y162000D01*
X865416Y160875*
X865143Y159000*
Y157875*
X865416Y156000*
X865961Y154875*
X866779Y154500*
X867325*
X868143Y154875*
X868688Y156000*
X868961Y157875*
Y159000*
X868688Y160875*
X868143Y162000*
X867325Y162375*
X866779*
X874143D02*
X871416Y157125D01*
X875506*
X874143Y162375D02*
Y154500D01*
X947006Y160875D02*
X947552Y161250D01*
X948370Y162375*
Y154500*
X952461Y162375D02*
X951643Y162000D01*
X951097Y160875*
X950825Y159000*
Y157875*
X951097Y156000*
X951643Y154875*
X952461Y154500*
X953006*
X953825Y154875*
X954370Y156000*
X954643Y157875*
Y159000*
X954370Y160875*
X953825Y162000*
X953006Y162375*
X952461*
X981870Y154500D02*
X993870D01*
Y166500*
X981870*
Y154500*
X987870Y160500D02*
Y166500D01*
X1014506Y162375D02*
X1016688Y158625D01*
Y154500*
X1018870Y162375D02*
X1016688Y158625D01*
X1021325Y162375D02*
Y154500D01*
Y162375D02*
X1024870D01*
X1021325Y158625D02*
X1023506D01*
X1021325Y154500D02*
X1024870D01*
X1031143Y161250D02*
X1030597Y162000D01*
X1029779Y162375*
X1028688*
X1027870Y162000*
X1027325Y161250*
Y160500*
X1027597Y159750*
X1027870Y159375*
X1028416Y159000*
X1030052Y158250*
X1030597Y157875*
X1030870Y157500*
X1031143Y156750*
Y155625*
X1030597Y154875*
X1029779Y154500*
X1028688*
X1027870Y154875*
X1027325Y155625*
X1067688Y161250D02*
Y154500D01*
X1065234Y157875D02*
X1070143D01*
X1077506Y163875D02*
X1072597Y151875D01*
X1079961Y157875D02*
X1084870D01*
X1088961Y162375D02*
X1088143Y162000D01*
X1087597Y160875*
X1087325Y159000*
Y157875*
X1087597Y156000*
X1088143Y154875*
X1088961Y154500*
X1089506*
X1090325Y154875*
X1090870Y156000*
X1091143Y157875*
Y159000*
X1090870Y160875*
X1090325Y162000*
X1089506Y162375*
X1088961*
X1093870Y155250D02*
X1093597Y154875D01*
X1093870Y154500*
X1094143Y154875*
X1093870Y155250*
X1098234Y162375D02*
X1097416Y162000D01*
X1096870Y160875*
X1096597Y159000*
Y157875*
X1096870Y156000*
X1097416Y154875*
X1098234Y154500*
X1098779*
X1099597Y154875*
X1100143Y156000*
X1100416Y157875*
Y159000*
X1100143Y160875*
X1099597Y162000*
X1098779Y162375*
X1098234*
X857506Y138375D02*
X856688Y138000D01*
X856143Y136875*
X855870Y135000*
Y133875*
X856143Y132000*
X856688Y130875*
X857506Y130500*
X858052*
X858870Y130875*
X859416Y132000*
X859688Y133875*
Y135000*
X859416Y136875*
X858870Y138000*
X858052Y138375*
X857506*
X862416Y131250D02*
X862143Y130875D01*
X862416Y130500*
X862688Y130875*
X862416Y131250*
X866779Y138375D02*
X865961Y138000D01*
X865416Y136875*
X865143Y135000*
Y133875*
X865416Y132000*
X865961Y130875*
X866779Y130500*
X867325*
X868143Y130875*
X868688Y132000*
X868961Y133875*
Y135000*
X868688Y136875*
X868143Y138000*
X867325Y138375*
X866779*
X871961D02*
X874961D01*
X873325Y135375*
X874143*
X874688Y135000*
X874961Y134625*
X875234Y133500*
Y132750*
X874961Y131625*
X874416Y130875*
X873597Y130500*
X872779*
X871961Y130875*
X871688Y131250*
X871416Y132000*
X881506Y138375D02*
X878779Y130500D01*
X877688Y138375D02*
X881506D01*
X949188Y136500D02*
Y136875D01*
X949461Y137625*
X949734Y138000*
X950279Y138375*
X951370*
X951916Y138000*
X952188Y137625*
X952461Y136875*
Y136125*
X952188Y135375*
X951643Y134250*
X948916Y130500*
X952734*
X987870D02*
X993870Y136500D01*
X987870Y142500*
X981870Y136500*
X987870Y130500*
Y136500D02*
Y142500D01*
X1014506Y138375D02*
X1016688Y134625D01*
Y130500*
X1018870Y138375D02*
X1016688Y134625D01*
X1021325Y138375D02*
Y130500D01*
Y138375D02*
X1024870D01*
X1021325Y134625D02*
X1023506D01*
X1021325Y130500D02*
X1024870D01*
X1031143Y137250D02*
X1030597Y138000D01*
X1029779Y138375*
X1028688*
X1027870Y138000*
X1027325Y137250*
Y136500*
X1027597Y135750*
X1027870Y135375*
X1028416Y135000*
X1030052Y134250*
X1030597Y133875*
X1030870Y133500*
X1031143Y132750*
Y131625*
X1030597Y130875*
X1029779Y130500*
X1028688*
X1027870Y130875*
X1027325Y131625*
X1067688Y137250D02*
Y130500D01*
X1065234Y133875D02*
X1070143D01*
X1077506Y139875D02*
X1072597Y127875D01*
X1079961Y133875D02*
X1084870D01*
X1088961Y138375D02*
X1088143Y138000D01*
X1087597Y136875*
X1087325Y135000*
Y133875*
X1087597Y132000*
X1088143Y130875*
X1088961Y130500*
X1089506*
X1090325Y130875*
X1090870Y132000*
X1091143Y133875*
Y135000*
X1090870Y136875*
X1090325Y138000*
X1089506Y138375*
X1088961*
X1093870Y131250D02*
X1093597Y130875D01*
X1093870Y130500*
X1094143Y130875*
X1093870Y131250*
X1098234Y138375D02*
X1097416Y138000D01*
X1096870Y136875*
X1096597Y135000*
Y133875*
X1096870Y132000*
X1097416Y130875*
X1098234Y130500*
X1098779*
X1099597Y130875*
X1100143Y132000*
X1100416Y133875*
Y135000*
X1100143Y136875*
X1099597Y138000*
X1098779Y138375*
X1098234*
X857506Y114375D02*
X856688Y114000D01*
X856143Y112875*
X855870Y111000*
Y109875*
X856143Y108000*
X856688Y106875*
X857506Y106500*
X858052*
X858870Y106875*
X859416Y108000*
X859688Y109875*
Y111000*
X859416Y112875*
X858870Y114000*
X858052Y114375*
X857506*
X862416Y107250D02*
X862143Y106875D01*
X862416Y106500*
X862688Y106875*
X862416Y107250*
X866779Y114375D02*
X865961Y114000D01*
X865416Y112875*
X865143Y111000*
Y109875*
X865416Y108000*
X865961Y106875*
X866779Y106500*
X867325*
X868143Y106875*
X868688Y108000*
X868961Y109875*
Y111000*
X868688Y112875*
X868143Y114000*
X867325Y114375*
X866779*
X874961Y111750D02*
X874688Y110625D01*
X874143Y109875*
X873325Y109500*
X873052*
X872234Y109875*
X871688Y110625*
X871416Y111750*
Y112125*
X871688Y113250*
X872234Y114000*
X873052Y114375*
X873325*
X874143Y114000*
X874688Y113250*
X874961Y111750*
Y109875*
X874688Y108000*
X874143Y106875*
X873325Y106500*
X872779*
X871961Y106875*
X871688Y107625*
X879052Y114375D02*
X878234Y114000D01*
X877688Y112875*
X877416Y111000*
Y109875*
X877688Y108000*
X878234Y106875*
X879052Y106500*
X879597*
X880416Y106875*
X880961Y108000*
X881234Y109875*
Y111000*
X880961Y112875*
X880416Y114000*
X879597Y114375*
X879052*
X887234D02*
X884506D01*
X884234Y111000*
X884506Y111375*
X885325Y111750*
X886143*
X886961Y111375*
X887506Y110625*
X887779Y109500*
X887506Y108750*
X887234Y107625*
X886688Y106875*
X885870Y106500*
X885052*
X884234Y106875*
X883961Y107250*
X883688Y108000*
X893779Y114375D02*
X891052D01*
X890779Y111000*
X891052Y111375*
X891870Y111750*
X892688*
X893506Y111375*
X894052Y110625*
X894325Y109500*
X894052Y108750*
X893779Y107625*
X893234Y106875*
X892416Y106500*
X891597*
X890779Y106875*
X890506Y107250*
X890234Y108000*
X951506Y114375D02*
X948779Y109125D01*
X952870*
X951506Y114375D02*
Y106500D01*
X981870D02*
X993870D01*
X981870Y118500*
X993870*
X981870Y106500*
X1017506Y114375D02*
Y106500D01*
Y114375D02*
X1021325Y106500D01*
Y114375D02*
Y106500D01*
X1025416Y114375D02*
X1024870Y114000D01*
X1024325Y113250*
X1024052Y112500*
X1023779Y111375*
Y109500*
X1024052Y108375*
X1024325Y107625*
X1024870Y106875*
X1025416Y106500*
X1026506*
X1027052Y106875*
X1027597Y107625*
X1027870Y108375*
X1028143Y109500*
Y111375*
X1027870Y112500*
X1027597Y113250*
X1027052Y114000*
X1026506Y114375*
X1025416*
X1067688Y113250D02*
Y106500D01*
X1065234Y109875D02*
X1070143D01*
X1077506Y115875D02*
X1072597Y103875D01*
X1079961Y109875D02*
X1084870D01*
X1088961Y114375D02*
X1088143Y114000D01*
X1087597Y112875*
X1087325Y111000*
Y109875*
X1087597Y108000*
X1088143Y106875*
X1088961Y106500*
X1089506*
X1090325Y106875*
X1090870Y108000*
X1091143Y109875*
Y111000*
X1090870Y112875*
X1090325Y114000*
X1089506Y114375*
X1088961*
X1093870Y107250D02*
X1093597Y106875D01*
X1093870Y106500*
X1094143Y106875*
X1093870Y107250*
X1098234Y114375D02*
X1097416Y114000D01*
X1096870Y112875*
X1096597Y111000*
Y109875*
X1096870Y108000*
X1097416Y106875*
X1098234Y106500*
X1098779*
X1099597Y106875*
X1100143Y108000*
X1100416Y109875*
Y111000*
X1100143Y112875*
X1099597Y114000*
X1098779Y114375*
X1098234*
X0Y0D02*
M02*
