*
*
G04 PADS VX.2.14.1 Build Number: 24127278 generated Gerber (RS-274-X) file*
G04 PC Version=2.1*
*
%IN "Gadget_PCB_blz.pcb"*%
*
%MOIN*%
*
%FSLAX35Y35*%
*
*
*
*
G04 PC Standard Apertures*
*
*
G04 Thermal Relief Aperture macro.*
%AMTER*
1,1,$1,0,0*
1,0,$1-$2,0,0*
21,0,$3,$4,0,0,45*
21,0,$3,$4,0,0,135*
%
*
*
G04 Annular Aperture macro.*
%AMANN*
1,1,$1,0,0*
1,0,$2,0,0*
%
*
*
G04 Odd Aperture macro.*
%AMODD*
1,1,$1,0,0*
1,0,$1-0.005,0,0*
%
*
*
G04 PC Custom Aperture Macros*
*
*
*
*
*
*
G04 PC Aperture Table*
*
%ADD010C,0.001*%
%ADD011R,0.06X0.06*%
%ADD012C,0.06*%
%ADD013C,0.11811*%
%ADD014ANN,0.09843X0.09055*%
%ADD015C,0.008*%
%ADD016C,0.055*%
%ADD017C,0.01*%
*
*
*
*
G04 PC Circuitry*
G04 Layer Name Gadget_PCB_blz.pcb - circuitry*
%LPD*%
*
*
G04 PC Custom Flashes*
G04 Layer Name Gadget_PCB_blz.pcb - flashes*
%LPD*%
*
*
G04 PC Circuitry*
G04 Layer Name Gadget_PCB_blz.pcb - circuitry*
%LPD*%
*
G54D10*
G54D11*
G01X136000Y107000D03*
X121000Y244500D03*
G54D12*
X146000Y107000D03*
X156000D03*
X166000D03*
X176000D03*
X186000D03*
X196000D03*
X106000Y127000D03*
X121000Y234500D03*
Y224500D03*
Y214500D03*
Y204500D03*
Y194500D03*
Y184500D03*
Y174500D03*
X131000Y244500D03*
Y234500D03*
Y224500D03*
Y214500D03*
Y204500D03*
Y194500D03*
Y184500D03*
Y174500D03*
X201000Y244500D03*
Y234500D03*
Y224500D03*
Y214500D03*
Y204500D03*
Y194500D03*
Y184500D03*
Y174500D03*
X211000Y244500D03*
Y234500D03*
Y224500D03*
Y214500D03*
Y204500D03*
Y194500D03*
Y184500D03*
Y174500D03*
G54D13*
X125843Y264657D03*
X206157D03*
G54D14*
X108000Y267000D03*
Y110000D03*
X209500D03*
G54D15*
X156000Y107000D02*
X161000Y114000D01*
X188041*
X191000Y109627*
Y104000*
X193000Y102000*
X197900*
Y102100*
X201000Y105200*
Y165000*
X106000Y127000D02*
Y242000D01*
X115000Y251000*
X129000*
X131000Y249000*
Y244500*
X121000Y174500D02*
X131338Y164162D01*
X186838*
X196000Y155000*
Y107000*
G54D16*
X201000Y165000D03*
G54D17*
X100000Y100000D02*
Y277000D01*
X218000*
Y100000*
X100000*
X0Y0D02*
M02*
