*
*
G04 PADS VX.2.14.1 Build Number: 24127278 generated Gerber (RS-274-X) file*
G04 PC Version=2.1*
*
%IN "Gadget_PCB_blz.pcb"*%
*
%MOIN*%
*
%FSLAX35Y35*%
*
*
*
*
G04 PC Standard Apertures*
*
*
G04 Thermal Relief Aperture macro.*
%AMTER*
1,1,$1,0,0*
1,0,$1-$2,0,0*
21,0,$3,$4,0,0,45*
21,0,$3,$4,0,0,135*
%
*
*
G04 Annular Aperture macro.*
%AMANN*
1,1,$1,0,0*
1,0,$2,0,0*
%
*
*
G04 Odd Aperture macro.*
%AMODD*
1,1,$1,0,0*
1,0,$1-0.005,0,0*
%
*
*
G04 PC Custom Aperture Macros*
*
*
*
*
*
*
G04 PC Aperture Table*
*
%ADD010C,0.001*%
%ADD017C,0.01*%
*
*
*
*
G04 PC Circuitry*
G04 Layer Name Gadget_PCB_blz.pcb - circuitry*
%LPD*%
*
*
G04 PC Custom Flashes*
G04 Layer Name Gadget_PCB_blz.pcb - flashes*
%LPD*%
*
*
G04 PC Circuitry*
G04 Layer Name Gadget_PCB_blz.pcb - circuitry*
%LPD*%
*
G54D10*
G01X100000Y277000D02*
X100003D01*
X218000D02*
X218003D01*
X100000Y100000D02*
X100003D01*
X100000Y277000D02*
X100003D01*
G54D17*
X136273Y300563D02*
X136727Y300875D01*
X137409Y301813*
X137409D02*
Y295250D01*
X139455Y300563D02*
X139909Y300875D01*
X140591Y301813*
X140591D02*
Y295250D01*
X143773Y301813D02*
X143091Y301500D01*
X142864Y300875*
Y300250*
X143091Y299625*
X143545Y299313*
X143545D02*
X144455Y299000D01*
X145136Y298688*
X145136D02*
X145591Y298063D01*
X145591D02*
X145818Y297438D01*
X145818D02*
Y296500D01*
X145591Y295875*
X145364Y295563*
X145364D02*
X144682Y295250D01*
X143773*
X143091Y295563*
X143091D02*
X142864Y295875D01*
X142636Y296500*
Y297438*
X142636D02*
X142864Y298063D01*
X142864D02*
X143318Y298688D01*
X143318D02*
X144000Y299000D01*
X144909Y299313*
X144909D02*
X145364Y299625D01*
X145591Y300250*
Y300875*
X145364Y301500*
X144682Y301813*
X144682D02*
X143773D01*
X149227D02*
X148545Y301500D01*
X148091Y300563*
X148091D02*
X147864Y299000D01*
Y298063*
X147864D02*
X148091Y296500D01*
X148545Y295563*
X148545D02*
X149227Y295250D01*
X149682*
X150364Y295563*
X150364D02*
X150818Y296500D01*
X151045Y298063*
X151045D02*
Y299000D01*
X150818Y300563*
X150818D02*
X150364Y301500D01*
X149682Y301813*
X149682D02*
X149227D01*
X153318Y295875D02*
X153091Y295563D01*
X153091D02*
X153318Y295250D01*
X153545Y295563*
X153545D02*
X153318Y295875D01*
X156955Y301813D02*
X156273Y301500D01*
X155818Y300563*
X155818D02*
X155591Y299000D01*
Y298063*
X155591D02*
X155818Y296500D01*
X156273Y295563*
X156273D02*
X156955Y295250D01*
X157409*
X158091Y295563*
X158091D02*
X158545Y296500D01*
X158773Y298063*
X158773D02*
Y299000D01*
X158545Y300563*
X158545D02*
X158091Y301500D01*
X157409Y301813*
X157409D02*
X156955D01*
X162182D02*
X161500Y301500D01*
X161045Y300563*
X161045D02*
X160818Y299000D01*
Y298063*
X160818D02*
X161045Y296500D01*
X161500Y295563*
X161500D02*
X162182Y295250D01*
X162636*
X163318Y295563*
X163318D02*
X163773Y296500D01*
X164000Y298063*
X164000D02*
Y299000D01*
X163773Y300563*
X163773D02*
X163318Y301500D01*
X162636Y301813*
X162636D02*
X162182D01*
X167409D02*
X166727Y301500D01*
X166273Y300563*
X166273D02*
X166045Y299000D01*
Y298063*
X166045D02*
X166273Y296500D01*
X166727Y295563*
X166727D02*
X167409Y295250D01*
X167864*
X168545Y295563*
X168545D02*
X169000Y296500D01*
X169227Y298063*
X169227D02*
Y299000D01*
X169000Y300563*
X169000D02*
X168545Y301500D01*
X167864Y301813*
X167864D02*
X167409D01*
X171273Y299625D02*
Y295250D01*
Y298375D02*
X171955Y299313D01*
X171955D02*
X172409Y299625D01*
X173091*
X173545Y299313*
X173545D02*
X173773Y298375D01*
Y295250*
Y298375D02*
X174455Y299313D01*
X174455D02*
X174909Y299625D01*
X175591*
X176045Y299313*
X176045D02*
X176273Y298375D01*
Y295250*
X178318Y301813D02*
X178545Y301500D01*
X178773Y301813*
X178773D02*
X178545Y302125D01*
X178318Y301813*
X178545Y299625D02*
Y295250D01*
X180818Y301813D02*
Y295250D01*
X24250Y190063D02*
X24705Y190375D01*
X25386Y191313*
X25386D02*
Y184750D01*
X30614Y191313D02*
X28341Y184750D01*
X27432Y191313D02*
X30614D01*
X35841D02*
X33568Y184750D01*
X32659Y191313D02*
X35841D01*
X39250D02*
X38568Y191000D01*
X38114Y190063*
X38114D02*
X37886Y188500D01*
Y187563*
X37886D02*
X38114Y186000D01*
X38568Y185063*
X38568D02*
X39250Y184750D01*
X39705*
X40386Y185063*
X40386D02*
X40841Y186000D01*
X41068Y187563*
X41068D02*
Y188500D01*
X40841Y190063*
X40841D02*
X40386Y191000D01*
X39705Y191313*
X39705D02*
X39250D01*
X43341Y185375D02*
X43114Y185063D01*
X43114D02*
X43341Y184750D01*
X43568Y185063*
X43568D02*
X43341Y185375D01*
X46977Y191313D02*
X46295Y191000D01*
X45841Y190063*
X45841D02*
X45614Y188500D01*
Y187563*
X45614D02*
X45841Y186000D01*
X46295Y185063*
X46295D02*
X46977Y184750D01*
X47432*
X48114Y185063*
X48114D02*
X48568Y186000D01*
X48795Y187563*
X48795D02*
Y188500D01*
X48568Y190063*
X48568D02*
X48114Y191000D01*
X47432Y191313*
X47432D02*
X46977D01*
X52205D02*
X51523Y191000D01*
X51068Y190063*
X51068D02*
X50841Y188500D01*
Y187563*
X50841D02*
X51068Y186000D01*
X51523Y185063*
X51523D02*
X52205Y184750D01*
X52659*
X53341Y185063*
X53341D02*
X53795Y186000D01*
X54023Y187563*
X54023D02*
Y188500D01*
X53795Y190063*
X53795D02*
X53341Y191000D01*
X52659Y191313*
X52659D02*
X52205D01*
X57432D02*
X56750Y191000D01*
X56295Y190063*
X56295D02*
X56068Y188500D01*
Y187563*
X56068D02*
X56295Y186000D01*
X56750Y185063*
X56750D02*
X57432Y184750D01*
X57886*
X58568Y185063*
X58568D02*
X59023Y186000D01*
X59250Y187563*
X59250D02*
Y188500D01*
X59023Y190063*
X59023D02*
X58568Y191000D01*
X57886Y191313*
X57886D02*
X57432D01*
X61295Y189125D02*
Y184750D01*
Y187875D02*
X61977Y188813D01*
X61977D02*
X62432Y189125D01*
X63114*
X63568Y188813*
X63568D02*
X63795Y187875D01*
Y184750*
Y187875D02*
X64477Y188813D01*
X64477D02*
X64932Y189125D01*
X65614*
X66068Y188813*
X66068D02*
X66295Y187875D01*
Y184750*
X68341Y191313D02*
X68568Y191000D01*
X68795Y191313*
X68795D02*
X68568Y191625D01*
X68341Y191313*
X68568Y189125D02*
Y184750D01*
X70841Y191313D02*
Y184750D01*
X132000Y107000D02*
X140000D01*
X136000Y103000D02*
Y111000D01*
X142000Y107000D02*
X150000D01*
X146000Y103000D02*
Y111000D01*
X152000Y107000D02*
X160000D01*
X156000Y103000D02*
Y111000D01*
X162000Y107000D02*
X170000D01*
X166000Y103000D02*
Y111000D01*
X172000Y107000D02*
X180000D01*
X176000Y103000D02*
Y111000D01*
X182000Y107000D02*
X190000D01*
X186000Y103000D02*
Y111000D01*
X192000Y107000D02*
X200000D01*
X196000Y103000D02*
Y111000D01*
X102000Y123000D02*
X110000D01*
Y131000*
X102000*
Y123000*
X106000Y127000D02*
Y131000D01*
X121000Y240500D02*
X125000Y244500D01*
X121000Y248500*
X117000Y244500*
X121000Y240500*
Y244500D02*
Y248500D01*
Y230500D02*
X125000Y234500D01*
X121000Y238500*
X117000Y234500*
X121000Y230500*
Y234500D02*
Y238500D01*
Y220500D02*
X125000Y224500D01*
X121000Y228500*
X117000Y224500*
X121000Y220500*
Y224500D02*
Y228500D01*
Y210500D02*
X125000Y214500D01*
X121000Y218500*
X117000Y214500*
X121000Y210500*
Y214500D02*
Y218500D01*
Y200500D02*
X125000Y204500D01*
X121000Y208500*
X117000Y204500*
X121000Y200500*
Y204500D02*
Y208500D01*
Y190500D02*
X125000Y194500D01*
X121000Y198500*
X117000Y194500*
X121000Y190500*
Y194500D02*
Y198500D01*
Y180500D02*
X125000Y184500D01*
X121000Y188500*
X117000Y184500*
X121000Y180500*
Y184500D02*
Y188500D01*
Y170500D02*
X125000Y174500D01*
X121000Y178500*
X117000Y174500*
X121000Y170500*
Y174500D02*
Y178500D01*
X131000Y240500D02*
X135000Y244500D01*
X131000Y248500*
X127000Y244500*
X131000Y240500*
Y244500D02*
Y248500D01*
Y230500D02*
X135000Y234500D01*
X131000Y238500*
X127000Y234500*
X131000Y230500*
Y234500D02*
Y238500D01*
Y220500D02*
X135000Y224500D01*
X131000Y228500*
X127000Y224500*
X131000Y220500*
Y224500D02*
Y228500D01*
Y210500D02*
X135000Y214500D01*
X131000Y218500*
X127000Y214500*
X131000Y210500*
Y214500D02*
Y218500D01*
Y200500D02*
X135000Y204500D01*
X131000Y208500*
X127000Y204500*
X131000Y200500*
Y204500D02*
Y208500D01*
Y190500D02*
X135000Y194500D01*
X131000Y198500*
X127000Y194500*
X131000Y190500*
Y194500D02*
Y198500D01*
Y180500D02*
X135000Y184500D01*
X131000Y188500*
X127000Y184500*
X131000Y180500*
Y184500D02*
Y188500D01*
Y170500D02*
X135000Y174500D01*
X131000Y178500*
X127000Y174500*
X131000Y170500*
Y174500D02*
Y178500D01*
X201000Y240500D02*
X205000Y244500D01*
X201000Y248500*
X197000Y244500*
X201000Y240500*
Y244500D02*
Y248500D01*
Y230500D02*
X205000Y234500D01*
X201000Y238500*
X197000Y234500*
X201000Y230500*
Y234500D02*
Y238500D01*
Y220500D02*
X205000Y224500D01*
X201000Y228500*
X197000Y224500*
X201000Y220500*
Y224500D02*
Y228500D01*
Y210500D02*
X205000Y214500D01*
X201000Y218500*
X197000Y214500*
X201000Y210500*
Y214500D02*
Y218500D01*
Y200500D02*
X205000Y204500D01*
X201000Y208500*
X197000Y204500*
X201000Y200500*
Y204500D02*
Y208500D01*
Y190500D02*
X205000Y194500D01*
X201000Y198500*
X197000Y194500*
X201000Y190500*
Y194500D02*
Y198500D01*
Y180500D02*
X205000Y184500D01*
X201000Y188500*
X197000Y184500*
X201000Y180500*
Y184500D02*
Y188500D01*
Y170500D02*
X205000Y174500D01*
X201000Y178500*
X197000Y174500*
X201000Y170500*
Y174500D02*
Y178500D01*
X211000Y240500D02*
X215000Y244500D01*
X211000Y248500*
X207000Y244500*
X211000Y240500*
Y244500D02*
Y248500D01*
Y230500D02*
X215000Y234500D01*
X211000Y238500*
X207000Y234500*
X211000Y230500*
Y234500D02*
Y238500D01*
Y220500D02*
X215000Y224500D01*
X211000Y228500*
X207000Y224500*
X211000Y220500*
Y224500D02*
Y228500D01*
Y210500D02*
X215000Y214500D01*
X211000Y218500*
X207000Y214500*
X211000Y210500*
Y214500D02*
Y218500D01*
Y200500D02*
X215000Y204500D01*
X211000Y208500*
X207000Y204500*
X211000Y200500*
Y204500D02*
Y208500D01*
Y190500D02*
X215000Y194500D01*
X211000Y198500*
X207000Y194500*
X211000Y190500*
Y194500D02*
Y198500D01*
Y180500D02*
X215000Y184500D01*
X211000Y188500*
X207000Y184500*
X211000Y180500*
Y184500D02*
Y188500D01*
Y170500D02*
X215000Y174500D01*
X211000Y178500*
X207000Y174500*
X211000Y170500*
Y174500D02*
Y178500D01*
X121843Y260657D02*
X129843D01*
X121843Y268657*
X129843*
X121843Y260657*
X202157D02*
X210157D01*
X202157Y268657*
X210157*
X202157Y260657*
X104000Y263000D02*
X112000Y271000D01*
X104000D02*
X112000Y263000D01*
X104000Y106000D02*
X112000Y114000D01*
X104000D02*
X112000Y106000D01*
X205500D02*
X213500Y114000D01*
X205500D02*
X213500Y106000D01*
X197000Y161000D02*
X205000D01*
Y169000*
X197000*
Y161000*
X201000Y165000D02*
Y169000D01*
X100000Y100000D02*
Y277000D01*
X218000*
Y100000*
X100000*
Y299000D02*
X133273D01*
X100000D02*
X110000Y301500D01*
Y296500*
X100000Y299000*
X218000D02*
X184727D01*
X218000D02*
X208000Y296500D01*
Y301500*
X218000Y299000*
X100000Y282000D02*
Y304000D01*
X218000Y282000D02*
Y304000D01*
X48000Y100000D02*
Y181750D01*
Y100000D02*
X45500Y110000D01*
X50500*
X48000Y100000*
Y277000D02*
Y195250D01*
Y277000D02*
X50500Y267000D01*
X45500*
X48000Y277000*
X95000Y100000D02*
X43000D01*
X95000Y277000D02*
X43000D01*
X257870Y243500D02*
X515870D01*
X257870Y219500D02*
X515870D01*
X257870Y195500D02*
X515870D01*
X257870Y171500D02*
X515870D01*
X257870Y147500D02*
X515870D01*
X257870Y123500D02*
X515870D01*
X257870Y99500D02*
X515870D01*
X257870Y243500D02*
Y99500D01*
X341870Y243500D02*
Y99500D01*
X377870Y243500D02*
Y99500D01*
X413870Y243500D02*
Y99500D01*
X467870Y243500D02*
Y99500D01*
X515870Y243500D02*
Y99500D01*
X293370Y232250D02*
X292825Y233000D01*
X292006Y233375*
X290916*
X290097Y233000*
X289552Y232250*
Y231500*
X289825Y230750*
X290097Y230375*
X290643Y230000*
X292279Y229250*
X292825Y228875*
X293097Y228500*
X293370Y227750*
Y226625*
X292825Y225875*
X292006Y225500*
X290916*
X290097Y225875*
X289552Y226625*
X295825Y233375D02*
Y225500D01*
X302097Y233375D02*
X298279Y225500D01*
Y233375D02*
X302097D01*
X298279Y225500D02*
X302097D01*
X304552Y233375D02*
Y225500D01*
Y233375D02*
X308097D01*
X304552Y229625D02*
X306734D01*
X304552Y225500D02*
X308097D01*
X351734Y233375D02*
X351188Y233000D01*
X350643Y232250*
X350370Y231500*
X350097Y230375*
Y228500*
X350370Y227375*
X350643Y226625*
X351188Y225875*
X351734Y225500*
X352825*
X353370Y225875*
X353916Y226625*
X354188Y227375*
X354461Y228500*
Y230375*
X354188Y231500*
X353916Y232250*
X353370Y233000*
X352825Y233375*
X351734*
X352552Y227000D02*
X354188Y224750D01*
X358825Y233375D02*
Y225500D01*
X356916Y233375D02*
X360734D01*
X363188D02*
X365370Y229625D01*
Y225500*
X367552Y233375D02*
X365370Y229625D01*
X389916Y232250D02*
X389370Y233000D01*
X388552Y233375*
X387461*
X386643Y233000*
X386097Y232250*
Y231500*
X386370Y230750*
X386643Y230375*
X387188Y230000*
X388825Y229250*
X389370Y228875*
X389643Y228500*
X389916Y227750*
Y226625*
X389370Y225875*
X388552Y225500*
X387461*
X386643Y225875*
X386097Y226625*
X392370Y233375D02*
X394552Y229625D01*
Y225500*
X396734Y233375D02*
X394552Y229625D01*
X399188Y233375D02*
Y225500D01*
Y233375D02*
X401370Y225500D01*
X403552Y233375D02*
X401370Y225500D01*
X403552Y233375D02*
Y225500D01*
X425370Y233375D02*
Y225500D01*
Y233375D02*
X427825D01*
X428643Y233000*
X428916Y232625*
X429188Y231875*
Y230750*
X428916Y230000*
X428643Y229625*
X427825Y229250*
X425370*
X431643Y233375D02*
Y225500D01*
X434916*
X439552Y233375D02*
X437370Y225500D01*
X439552Y233375D02*
X441734Y225500D01*
X438188Y228125D02*
X440916D01*
X446097Y233375D02*
Y225500D01*
X444188Y233375D02*
X448006D01*
X450461D02*
Y225500D01*
Y233375D02*
X454006D01*
X450461Y229625D02*
X452643D01*
X450461Y225500D02*
X454006D01*
X456461Y233375D02*
Y225500D01*
Y233375D02*
X458370D01*
X459188Y233000*
X459734Y232250*
X460006Y231500*
X460279Y230375*
Y228500*
X460006Y227375*
X459734Y226625*
X459188Y225875*
X458370Y225500*
X456461*
X484552Y233375D02*
Y225500D01*
X482643Y233375D02*
X486461D01*
X490552D02*
X490006Y233000D01*
X489461Y232250*
X489188Y231500*
X488916Y230375*
Y228500*
X489188Y227375*
X489461Y226625*
X490006Y225875*
X490552Y225500*
X491643*
X492188Y225875*
X492734Y226625*
X493006Y227375*
X493279Y228500*
Y230375*
X493006Y231500*
X492734Y232250*
X492188Y233000*
X491643Y233375*
X490552*
X495734D02*
Y225500D01*
X499006*
X264416Y209375D02*
X267416D01*
X265779Y206375*
X266597*
X267143Y206000*
X267416Y205625*
X267688Y204500*
Y203750*
X267416Y202625*
X266870Y201875*
X266052Y201500*
X265234*
X264416Y201875*
X264143Y202250*
X263870Y203000*
X273688Y209375D02*
X270961D01*
X270688Y206000*
X270961Y206375*
X271779Y206750*
X272597*
X273416Y206375*
X273961Y205625*
X274234Y204500*
X273961Y203750*
X273688Y202625*
X273143Y201875*
X272325Y201500*
X271506*
X270688Y201875*
X270416Y202250*
X270143Y203000*
X360734Y209375D02*
X358006Y201500D01*
X356916Y209375D02*
X360734D01*
X389870Y207500D02*
X401870D01*
X395870Y201500D02*
Y213500D01*
X422506Y209375D02*
X424688Y205625D01*
Y201500*
X426870Y209375D02*
X424688Y205625D01*
X429325Y209375D02*
Y201500D01*
Y209375D02*
X432870D01*
X429325Y205625D02*
X431506D01*
X429325Y201500D02*
X432870D01*
X439143Y208250D02*
X438597Y209000D01*
X437779Y209375*
X436688*
X435870Y209000*
X435325Y208250*
Y207500*
X435597Y206750*
X435870Y206375*
X436416Y206000*
X438052Y205250*
X438597Y204875*
X438870Y204500*
X439143Y203750*
Y202625*
X438597Y201875*
X437779Y201500*
X436688*
X435870Y201875*
X435325Y202625*
X475688Y208250D02*
Y201500D01*
X473234Y204875D02*
X478143D01*
X485506Y210875D02*
X480597Y198875D01*
X487961Y204875D02*
X492870D01*
X496961Y209375D02*
X496143Y209000D01*
X495597Y207875*
X495325Y206000*
Y204875*
X495597Y203000*
X496143Y201875*
X496961Y201500*
X497506*
X498325Y201875*
X498870Y203000*
X499143Y204875*
Y206000*
X498870Y207875*
X498325Y209000*
X497506Y209375*
X496961*
X501870Y202250D02*
X501597Y201875D01*
X501870Y201500*
X502143Y201875*
X501870Y202250*
X506234Y209375D02*
X505416Y209000D01*
X504870Y207875*
X504597Y206000*
Y204875*
X504870Y203000*
X505416Y201875*
X506234Y201500*
X506779*
X507597Y201875*
X508143Y203000*
X508416Y204875*
Y206000*
X508143Y207875*
X507597Y209000*
X506779Y209375*
X506234*
X267416Y182750D02*
X267143Y181625D01*
X266597Y180875*
X265779Y180500*
X265506*
X264688Y180875*
X264143Y181625*
X263870Y182750*
Y183125*
X264143Y184250*
X264688Y185000*
X265506Y185375*
X265779*
X266597Y185000*
X267143Y184250*
X267416Y182750*
Y180875*
X267143Y179000*
X266597Y177875*
X265779Y177500*
X265234*
X264416Y177875*
X264143Y178625*
X271506Y185375D02*
X270688Y185000D01*
X270143Y183875*
X269870Y182000*
Y180875*
X270143Y179000*
X270688Y177875*
X271506Y177500*
X272052*
X272870Y177875*
X273416Y179000*
X273688Y180875*
Y182000*
X273416Y183875*
X272870Y185000*
X272052Y185375*
X271506*
X276416Y178250D02*
X276143Y177875D01*
X276416Y177500*
X276688Y177875*
X276416Y178250*
X282688Y185375D02*
X279961D01*
X279688Y182000*
X279961Y182375*
X280779Y182750*
X281597*
X282416Y182375*
X282961Y181625*
X283234Y180500*
X282961Y179750*
X282688Y178625*
X282143Y177875*
X281325Y177500*
X280506*
X279688Y177875*
X279416Y178250*
X279143Y179000*
X289234Y185375D02*
X286506D01*
X286234Y182000*
X286506Y182375*
X287325Y182750*
X288143*
X288961Y182375*
X289506Y181625*
X289779Y180500*
X289506Y179750*
X289234Y178625*
X288688Y177875*
X287870Y177500*
X287052*
X286234Y177875*
X285961Y178250*
X285688Y179000*
X357461Y185375D02*
X360461D01*
X358825Y182375*
X359643*
X360188Y182000*
X360461Y181625*
X360734Y180500*
Y179750*
X360461Y178625*
X359916Y177875*
X359097Y177500*
X358279*
X357461Y177875*
X357188Y178250*
X356916Y179000*
X389870Y177500D02*
X401870Y189500D01*
X389870D02*
X401870Y177500D01*
X422506Y185375D02*
X424688Y181625D01*
Y177500*
X426870Y185375D02*
X424688Y181625D01*
X429325Y185375D02*
Y177500D01*
Y185375D02*
X432870D01*
X429325Y181625D02*
X431506D01*
X429325Y177500D02*
X432870D01*
X439143Y184250D02*
X438597Y185000D01*
X437779Y185375*
X436688*
X435870Y185000*
X435325Y184250*
Y183500*
X435597Y182750*
X435870Y182375*
X436416Y182000*
X438052Y181250*
X438597Y180875*
X438870Y180500*
X439143Y179750*
Y178625*
X438597Y177875*
X437779Y177500*
X436688*
X435870Y177875*
X435325Y178625*
X475688Y184250D02*
Y177500D01*
X473234Y180875D02*
X478143D01*
X485506Y186875D02*
X480597Y174875D01*
X487961Y180875D02*
X492870D01*
X496961Y185375D02*
X496143Y185000D01*
X495597Y183875*
X495325Y182000*
Y180875*
X495597Y179000*
X496143Y177875*
X496961Y177500*
X497506*
X498325Y177875*
X498870Y179000*
X499143Y180875*
Y182000*
X498870Y183875*
X498325Y185000*
X497506Y185375*
X496961*
X501870Y178250D02*
X501597Y177875D01*
X501870Y177500*
X502143Y177875*
X501870Y178250*
X506234Y185375D02*
X505416Y185000D01*
X504870Y183875*
X504597Y182000*
Y180875*
X504870Y179000*
X505416Y177875*
X506234Y177500*
X506779*
X507597Y177875*
X508143Y179000*
X508416Y180875*
Y182000*
X508143Y183875*
X507597Y185000*
X506779Y185375*
X506234*
X264416Y161375D02*
X267416D01*
X265779Y158375*
X266597*
X267143Y158000*
X267416Y157625*
X267688Y156500*
Y155750*
X267416Y154625*
X266870Y153875*
X266052Y153500*
X265234*
X264416Y153875*
X264143Y154250*
X263870Y155000*
X273961Y161375D02*
X271234Y153500D01*
X270143Y161375D02*
X273961D01*
X357188Y159500D02*
Y159875D01*
X357461Y160625*
X357734Y161000*
X358279Y161375*
X359370*
X359916Y161000*
X360188Y160625*
X360461Y159875*
Y159125*
X360188Y158375*
X359643Y157250*
X356916Y153500*
X360734*
X389870D02*
X401870D01*
Y165500*
X389870*
Y153500*
X395870Y159500D02*
Y165500D01*
X422506Y161375D02*
X424688Y157625D01*
Y153500*
X426870Y161375D02*
X424688Y157625D01*
X429325Y161375D02*
Y153500D01*
Y161375D02*
X432870D01*
X429325Y157625D02*
X431506D01*
X429325Y153500D02*
X432870D01*
X439143Y160250D02*
X438597Y161000D01*
X437779Y161375*
X436688*
X435870Y161000*
X435325Y160250*
Y159500*
X435597Y158750*
X435870Y158375*
X436416Y158000*
X438052Y157250*
X438597Y156875*
X438870Y156500*
X439143Y155750*
Y154625*
X438597Y153875*
X437779Y153500*
X436688*
X435870Y153875*
X435325Y154625*
X475688Y160250D02*
Y153500D01*
X473234Y156875D02*
X478143D01*
X485506Y162875D02*
X480597Y150875D01*
X487961Y156875D02*
X492870D01*
X496961Y161375D02*
X496143Y161000D01*
X495597Y159875*
X495325Y158000*
Y156875*
X495597Y155000*
X496143Y153875*
X496961Y153500*
X497506*
X498325Y153875*
X498870Y155000*
X499143Y156875*
Y158000*
X498870Y159875*
X498325Y161000*
X497506Y161375*
X496961*
X501870Y154250D02*
X501597Y153875D01*
X501870Y153500*
X502143Y153875*
X501870Y154250*
X506234Y161375D02*
X505416Y161000D01*
X504870Y159875*
X504597Y158000*
Y156875*
X504870Y155000*
X505416Y153875*
X506234Y153500*
X506779*
X507597Y153875*
X508143Y155000*
X508416Y156875*
Y158000*
X508143Y159875*
X507597Y161000*
X506779Y161375*
X506234*
X266597Y137375D02*
X263870Y132125D01*
X267961*
X266597Y137375D02*
Y129500D01*
X272052Y137375D02*
X271234Y137000D01*
X270688Y135875*
X270416Y134000*
Y132875*
X270688Y131000*
X271234Y129875*
X272052Y129500*
X272597*
X273416Y129875*
X273961Y131000*
X274234Y132875*
Y134000*
X273961Y135875*
X273416Y137000*
X272597Y137375*
X272052*
X354325D02*
X357325D01*
X355688Y134375*
X356506*
X357052Y134000*
X357325Y133625*
X357597Y132500*
Y131750*
X357325Y130625*
X356779Y129875*
X355961Y129500*
X355143*
X354325Y129875*
X354052Y130250*
X353779Y131000*
X360325Y135500D02*
Y135875D01*
X360597Y136625*
X360870Y137000*
X361416Y137375*
X362506*
X363052Y137000*
X363325Y136625*
X363597Y135875*
Y135125*
X363325Y134375*
X362779Y133250*
X360052Y129500*
X363870*
X395870D02*
X401870Y135500D01*
X395870Y141500*
X389870Y135500*
X395870Y129500*
Y135500D02*
Y141500D01*
X422506Y137375D02*
X424688Y133625D01*
Y129500*
X426870Y137375D02*
X424688Y133625D01*
X429325Y137375D02*
Y129500D01*
Y137375D02*
X432870D01*
X429325Y133625D02*
X431506D01*
X429325Y129500D02*
X432870D01*
X439143Y136250D02*
X438597Y137000D01*
X437779Y137375*
X436688*
X435870Y137000*
X435325Y136250*
Y135500*
X435597Y134750*
X435870Y134375*
X436416Y134000*
X438052Y133250*
X438597Y132875*
X438870Y132500*
X439143Y131750*
Y130625*
X438597Y129875*
X437779Y129500*
X436688*
X435870Y129875*
X435325Y130625*
X475688Y136250D02*
Y129500D01*
X473234Y132875D02*
X478143D01*
X485506Y138875D02*
X480597Y126875D01*
X487961Y132875D02*
X492870D01*
X496961Y137375D02*
X496143Y137000D01*
X495597Y135875*
X495325Y134000*
Y132875*
X495597Y131000*
X496143Y129875*
X496961Y129500*
X497506*
X498325Y129875*
X498870Y131000*
X499143Y132875*
Y134000*
X498870Y135875*
X498325Y137000*
X497506Y137375*
X496961*
X501870Y130250D02*
X501597Y129875D01*
X501870Y129500*
X502143Y129875*
X501870Y130250*
X506234Y137375D02*
X505416Y137000D01*
X504870Y135875*
X504597Y134000*
Y132875*
X504870Y131000*
X505416Y129875*
X506234Y129500*
X506779*
X507597Y129875*
X508143Y131000*
X508416Y132875*
Y134000*
X508143Y135875*
X507597Y137000*
X506779Y137375*
X506234*
X267688Y113375D02*
X264961Y105500D01*
X263870Y113375D02*
X267688D01*
X271506D02*
X270688Y113000D01*
X270416Y112250*
Y111500*
X270688Y110750*
X271234Y110375*
X272325Y110000*
X273143Y109625*
X273688Y108875*
X273961Y108125*
Y107000*
X273688Y106250*
X273416Y105875*
X272597Y105500*
X271506*
X270688Y105875*
X270416Y106250*
X270143Y107000*
Y108125*
X270416Y108875*
X270961Y109625*
X271779Y110000*
X272870Y110375*
X273416Y110750*
X273688Y111500*
Y112250*
X273416Y113000*
X272597Y113375*
X271506*
X276688Y106250D02*
X276416Y105875D01*
X276688Y105500*
X276961Y105875*
X276688Y106250*
X283234Y113375D02*
X280506Y105500D01*
X279416Y113375D02*
X283234D01*
X288416D02*
X285688Y108125D01*
X289779*
X288416Y113375D02*
Y105500D01*
X357188Y111500D02*
Y111875D01*
X357461Y112625*
X357734Y113000*
X358279Y113375*
X359370*
X359916Y113000*
X360188Y112625*
X360461Y111875*
Y111125*
X360188Y110375*
X359643Y109250*
X356916Y105500*
X360734*
X389870D02*
X401870D01*
X389870Y117500*
X401870*
X389870Y105500*
X422506Y113375D02*
X424688Y109625D01*
Y105500*
X426870Y113375D02*
X424688Y109625D01*
X429325Y113375D02*
Y105500D01*
Y113375D02*
X432870D01*
X429325Y109625D02*
X431506D01*
X429325Y105500D02*
X432870D01*
X439143Y112250D02*
X438597Y113000D01*
X437779Y113375*
X436688*
X435870Y113000*
X435325Y112250*
Y111500*
X435597Y110750*
X435870Y110375*
X436416Y110000*
X438052Y109250*
X438597Y108875*
X438870Y108500*
X439143Y107750*
Y106625*
X438597Y105875*
X437779Y105500*
X436688*
X435870Y105875*
X435325Y106625*
X475688Y112250D02*
Y105500D01*
X473234Y108875D02*
X478143D01*
X485506Y114875D02*
X480597Y102875D01*
X487961Y108875D02*
X492870D01*
X496961Y113375D02*
X496143Y113000D01*
X495597Y111875*
X495325Y110000*
Y108875*
X495597Y107000*
X496143Y105875*
X496961Y105500*
X497506*
X498325Y105875*
X498870Y107000*
X499143Y108875*
Y110000*
X498870Y111875*
X498325Y113000*
X497506Y113375*
X496961*
X501870Y106250D02*
X501597Y105875D01*
X501870Y105500*
X502143Y105875*
X501870Y106250*
X506234Y113375D02*
X505416Y113000D01*
X504870Y111875*
X504597Y110000*
Y108875*
X504870Y107000*
X505416Y105875*
X506234Y105500*
X506779*
X507597Y105875*
X508143Y107000*
X508416Y108875*
Y110000*
X508143Y111875*
X507597Y113000*
X506779Y113375*
X506234*
X0Y0D02*
M02*
