M48
;FILE_FORMAT=2:4
INCH,LZ
FMAT,2
ICI,OFF
;TYPE=PLATED
T1C.035
T2C.037
T3C.04
T4C.07874
T5C.09055
%
M72
G90
G93X0Y0
T1C.035F0S0
X0136Y0107
X0146Y0107
X0156Y0107
X0166Y0107
X0176Y0107
X0186Y0107
X0196Y0107
T2C.037F0S0
X0106Y0127
X0201Y0165
T3C.04F0S0
X0121Y01745
X0131Y01745
X0201Y01745
X0211Y01745
X0211Y02045
X0211Y01945
X0211Y01845
X0201Y02045
X0201Y01945
X0201Y01845
X0131Y02045
X0131Y01945
X0131Y01845
X0121Y02045
X0121Y01945
X0121Y01845
X0121Y02245
X0121Y02145
X0131Y02245
X0131Y02145
X0201Y02245
X0201Y02145
X0211Y02145
X0211Y02245
X0211Y02445
X0211Y02345
X0201Y02345
X0201Y02445
X0131Y02445
X0131Y02345
X0121Y02345
X0121Y02445
T4C.07874F0S0
X012584Y026466
X020616Y026466
T5C.09055F0S0
X0108Y011
X02095Y011
X0108Y0267
M30
